<?xml version="1.0" encoding="UTF-8" standalone="no"?>
<!-- Created with Inkscape (http://www.inkscape.org/) -->

<svg
   width="40.639999mm"
   height="128.5mm"
   viewBox="0 0 40.639999 128.5"
   version="1.1"
   id="svg250"
   inkscape:version="1.1.2 (b8e25be833, 2022-02-05)"
   sodipodi:docname="CVGuidedQuantizer.svg"
   xmlns:inkscape="http://www.inkscape.org/namespaces/inkscape"
   xmlns:sodipodi="http://sodipodi.sourceforge.net/DTD/sodipodi-0.dtd"
   xmlns="http://www.w3.org/2000/svg"
   xmlns:svg="http://www.w3.org/2000/svg">
  <sodipodi:namedview
     id="namedview252"
     pagecolor="#ffffff"
     bordercolor="#666666"
     borderopacity="1.0"
     inkscape:pageshadow="2"
     inkscape:pageopacity="0.0"
     inkscape:pagecheckerboard="false"
     inkscape:document-units="mm"
     showgrid="false"
     width="40.64mm"
     inkscape:snap-page="true"
     inkscape:zoom="1.0511789"
     inkscape:cx="-11.891411"
     inkscape:cy="306.32274"
     inkscape:window-width="1920"
     inkscape:window-height="1017"
     inkscape:window-x="-8"
     inkscape:window-y="-8"
     inkscape:window-maximized="1"
     inkscape:current-layer="layer1"
     inkscape:snap-smooth-nodes="false"
     inkscape:object-nodes="false"
     showguides="true"
     inkscape:guide-bbox="true" />
  <defs
     id="defs247" />
  <g
     inkscape:label="Layer 1"
     inkscape:groupmode="layer"
     id="layer1">
    <rect
       style="fill:#000000;stroke-width:0.264583;fill-opacity:0.85542166"
       id="rect791"
       width="40.639996"
       height="128.5"
       x="0"
       y="0" />
    <rect
       style="fill:#ffffff;fill-opacity:0.855422;stroke:none;stroke-width:0.288182;stroke-miterlimit:4;stroke-dasharray:none;stroke-opacity:1"
       id="rect34522"
       width="32.955883"
       height="0.63599998"
       x="3.8420582"
       y="120.47924" />
    <g
       aria-label="RosEngineering"
       transform="scale(1.1121932,0.89912438)"
       id="text38412"
       style="font-size:4.44068px;line-height:1.25;font-family:'Agency FB';-inkscape-font-specification:'Agency FB, Normal';fill:#f2f2f2;stroke-width:0.237893">
      <path
         d="m 9.2164759,140.10681 h -0.316572 l -0.6309755,-1.81703 0.041198,-0.0607 h 0.5377386 v -1.24894 H 8.0737813 v 3.12669 H 7.7723875 v -3.39339 h 1.1361896 q 0.1062468,0 0.1734641,0.0672 0.067217,0.0672 0.067217,0.17346 v 1.28797 q 0,0.24502 -0.3295817,0.24502 -0.032524,0 -0.095405,-0.002 -0.062881,-0.004 -0.091069,-0.004 0.2927206,0.81094 0.583273,1.62622 z"
         id="path56288" />
      <path
         d="m 10.84487,139.86179 q 0,0.24502 -0.245018,0.24502 H 9.8756393 q -0.2428497,0 -0.2428497,-0.24502 v -1.61972 q 0,-0.24502 0.2428497,-0.24502 h 0.7242127 q 0.245018,0 0.245018,0.24502 z m -0.288384,-0.009 v -1.60237 H 9.9211736 v 1.60237 z"
         id="path56290" />
      <path
         d="m 12.451581,139.86179 q 0,0.24502 -0.245018,0.24502 h -0.661332 q -0.245018,0 -0.245018,-0.24502 v -0.47919 h 0.284047 v 0.47486 h 0.583273 v -0.42065 l -0.754568,-0.61797 q -0.108415,-0.0867 -0.108415,-0.2255 v -0.35127 q 0,-0.24502 0.245018,-0.24502 h 0.652658 q 0.245018,0 0.245018,0.24502 v 0.42065 h -0.279711 v -0.41631 H 11.58426 v 0.36861 l 0.761074,0.61797 q 0.106247,0.0846 0.106247,0.22984 z"
         id="path56292" />
      <path
         d="m 14.058291,140.10681 h -1.114506 v -3.39339 h 1.101497 v 0.2667 h -0.800103 v 1.26629 h 0.728549 v 0.27104 h -0.728549 v 1.32266 h 0.813112 z"
         id="path56294" />
      <path
         d="m 15.7062,140.10681 h -0.288384 v -1.85173 l -0.635312,0.0174 v 1.83438 H 14.49412 v -2.10976 h 0.288384 v 0.0585 q 0.169128,-0.0217 0.340423,-0.0455 0.208157,-0.026 0.342592,-0.026 0.240681,0 0.240681,0.23634 z"
         id="path56296" />
      <path
         d="m 17.371456,140.6619 q 0,0.24501 -0.245018,0.24501 h -0.685184 q -0.249354,0 -0.249354,-0.31006 0,-0.0369 0.0022,-0.11059 0.0043,-0.0715 0.0043,-0.10407 h 0.284047 v 0.27971 h 0.602788 v -0.55509 h -0.474858 q -0.192979,0 -0.320909,-0.12793 -0.127929,-0.1301 -0.127929,-0.32524 v -1.23377 q 0,-0.18647 0.112751,-0.31006 0.112752,-0.12576 0.297058,-0.12576 0.04987,0 0.513887,0.0716 v -0.0585 h 0.286216 z m -0.286216,-0.80878 v -1.5937 q -0.342592,-0.0217 -0.398968,-0.0217 -0.238513,0 -0.238513,0.24285 v 1.12968 q 0,0.24285 0.238513,0.24285 z"
         id="path56298" />
      <path
         d="m 18.152044,137.53521 h -0.292721 v -0.36428 h 0.292721 z m -0.0043,2.5716 H 17.86366 v -2.10976 h 0.284047 z"
         id="path56300" />
      <path
         d="m 19.849823,140.10681 h -0.288384 v -1.85173 l -0.635312,0.0174 v 1.83438 h -0.288384 v -2.10976 h 0.288384 v 0.0585 q 0.169127,-0.0217 0.340423,-0.0455 0.208157,-0.026 0.342592,-0.026 0.240681,0 0.240681,0.23634 z"
         id="path56302" />
      <path
         d="m 21.495563,139.86179 q 0,0.24502 -0.242849,0.24502 h -0.693857 q -0.242849,0 -0.242849,-0.24502 v -1.61972 q 0,-0.24502 0.242849,-0.24502 h 0.693857 q 0.242849,0 0.242849,0.24502 v 0.75891 l -0.09757,0.10191 h -0.802272 v 0.76324 h 0.620134 v -0.38596 h 0.279711 z m -0.279711,-0.98874 v -0.63531 h -0.620134 v 0.63531 z"
         id="path56304" />
      <path
         d="m 23.152145,139.86179 q 0,0.24502 -0.24285,0.24502 h -0.693856 q -0.24285,0 -0.24285,-0.24502 v -1.61972 q 0,-0.24502 0.24285,-0.24502 h 0.693856 q 0.24285,0 0.24285,0.24502 v 0.75891 l -0.09757,0.10191 H 22.2523 v 0.76324 h 0.620134 v -0.38596 h 0.279711 z m -0.279711,-0.98874 v -0.63531 H 22.2523 v 0.63531 z"
         id="path56306" />
      <path
         d="m 24.732836,138.69091 h -0.284047 v -0.43583 l -0.531234,0.0174 v 1.83438 h -0.288384 v -2.10976 h 0.288384 v 0.0585 q 0.143108,-0.0217 0.288384,-0.0455 0.173464,-0.026 0.288384,-0.026 0.238513,0 0.238513,0.23634 z"
         id="path56308" />
      <path
         d="m 25.405009,137.53521 h -0.292721 v -0.36428 h 0.292721 z m -0.0043,2.5716 h -0.284047 v -2.10976 h 0.284047 z"
         id="path56310" />
      <path
         d="m 27.10279,140.10681 h -0.288384 v -1.85173 l -0.635312,0.0174 v 1.83438 H 25.89071 v -2.10976 h 0.288384 v 0.0585 q 0.169127,-0.0217 0.340423,-0.0455 0.208157,-0.026 0.342592,-0.026 0.240681,0 0.240681,0.23634 z"
         id="path56312" />
      <path
         d="m 28.768045,140.6619 q 0,0.24501 -0.245018,0.24501 h -0.685183 q -0.249355,0 -0.249355,-0.31006 0,-0.0369 0.0022,-0.11059 0.0043,-0.0715 0.0043,-0.10407 h 0.284047 v 0.27971 h 0.602788 v -0.55509 h -0.474858 q -0.192979,0 -0.320908,-0.12793 -0.12793,-0.1301 -0.12793,-0.32524 v -1.23377 q 0,-0.18647 0.112752,-0.31006 0.112751,-0.12576 0.297057,-0.12576 0.04987,0 0.513887,0.0716 v -0.0585 h 0.286216 z m -0.286216,-0.80878 v -1.5937 q -0.342591,-0.0217 -0.398967,-0.0217 -0.238513,0 -0.238513,0.24285 v 1.12968 q 0,0.24285 0.238513,0.24285 z"
         id="path56314" />
    </g>
    <g
       aria-label="GuideQuant"
       id="text6561"
       style="font-size:6.35px;line-height:1.25;font-family:'Agency FB';-inkscape-font-specification:'Agency FB, Normal';fill:#f2f2f2;stroke-width:0.264583">
      <path
         d="m 12.109958,6.5237811 q 0,0.1519287 -0.09612,0.2480469 -0.09612,0.096118 -0.248047,0.096118 h -1.274341 q -0.151928,0 -0.248046,-0.096118 -0.09612,-0.096118 -0.09612,-0.2480469 V 2.3596943 q 0,-0.1519287 0.09612,-0.2480469 0.09612,-0.096118 0.248046,-0.096118 h 1.274341 q 0.151929,0 0.248047,0.096118 0.09612,0.096118 0.09612,0.2480469 V 3.4883075 H 11.675876 V 2.3969013 h -1.097607 v 4.0896728 h 1.097607 V 4.8091571 H 11.158078 V 4.4370868 h 0.95188 z"
         id="path56383" />
      <path
         d="m 14.556321,6.8679461 h -0.406177 v -0.083716 q -0.248047,0.034107 -0.492993,0.065112 -0.297657,0.037207 -0.492993,0.037207 -0.334864,0 -0.334864,-0.3348633 V 3.8510761 h 0.406177 v 2.6479003 l 0.914673,-0.024805 V 3.8510761 h 0.406177 z"
         id="path56380" />
      <path
         d="M 15.66633,3.1906513 H 15.247751 V 2.6697529 h 0.418579 z m -0.0062,3.6772948 h -0.406177 v -3.01687 h 0.406177 z"
         id="path56377" />
      <path
         d="m 18.075486,6.8679461 h -0.409278 v -0.083716 q -0.663525,0.1023194 -0.734839,0.1023194 -0.263549,0 -0.42478,-0.1767334 -0.16123,-0.179834 -0.16123,-0.4464844 V 4.4990985 q 0,-0.2790527 0.182934,-0.4619873 0.182935,-0.1860351 0.458887,-0.1860351 h 0.679028 V 2.0155292 h 0.409278 z M 17.666208,6.4927753 V 4.2138446 H 17.0957 q -0.341064,0 -0.341064,0.3503662 v 1.6123047 q 0,0.3472656 0.341064,0.3472656 0.08062,0 0.570508,-0.031006 z"
         id="path56374" />
      <path
         d="m 20.441232,6.5175799 q 0,0.3503662 -0.347265,0.3503662 h -0.992188 q -0.347265,0 -0.347265,-0.3503662 V 4.2014423 q 0,-0.3503662 0.347265,-0.3503662 h 0.992188 q 0.347265,0 0.347265,0.3503662 v 1.085205 l -0.139526,0.1457276 h -1.147217 v 1.0914062 h 0.886768 V 5.9718768 h 0.399975 z M 20.041257,5.1037128 V 4.1952411 h -0.886768 v 0.9084717 z"
         id="path56371" />
      <path
         d="m 23.554221,6.8741473 h -0.03721 L 23.197653,6.6136981 q -0.05581,0.254248 -0.316259,0.254248 h -1.364258 q -0.151929,0 -0.248047,-0.096118 -0.09612,-0.096118 -0.09612,-0.2480469 V 2.3596943 q 0,-0.1519287 0.09612,-0.2480469 0.09612,-0.096118 0.248047,-0.096118 h 1.364258 q 0.151928,0 0.244946,0.096118 0.09612,0.096118 0.09612,0.2480469 v 3.8230224 l 0.331763,0.2666504 z M 22.791477,6.4865741 V 6.2974383 L 22.276779,5.8695575 V 5.4447772 h 0.04031 l 0.47439,0.3937744 V 2.3969013 h -1.187525 v 4.0896728 z"
         id="path56368" />
      <path
         d="m 25.709128,6.8679461 h -0.406177 v -0.083716 q -0.248047,0.034107 -0.492993,0.065112 -0.297657,0.037207 -0.492993,0.037207 -0.334864,0 -0.334864,-0.3348633 V 3.8510761 h 0.406177 v 2.6479003 l 0.914673,-0.024805 V 3.8510761 h 0.406177 z"
         id="path56365" />
      <path
         d="M 28.087277,6.8679461 H 27.6811 v -0.083716 q -0.244946,0.034107 -0.489892,0.065112 -0.303858,0.037207 -0.486792,0.037207 -0.337964,0 -0.337964,-0.3348633 v -1.100708 q 0,-0.3472656 0.350366,-0.3472656 h 0.970484 V 4.1952411 H 26.800534 V 4.7099384 H 26.400558 V 4.2014423 q 0,-0.3503662 0.347266,-0.3503662 h 0.992188 q 0.347265,0 0.347265,0.3503662 z M 27.687302,6.4927753 V 5.4261737 h -0.920874 v 1.0852051 z"
         id="path56362" />
      <path
         d="M 30.496433,6.8679461 H 30.084055 V 4.2200458 l -0.908472,0.024805 v 2.6230956 h -0.412378 v -3.01687 h 0.412378 v 0.083716 q 0.241846,-0.031006 0.486792,-0.065112 0.297656,-0.037207 0.489893,-0.037207 0.344165,0 0.344165,0.3379638 z"
         id="path56359" />
      <path
         d="m 32.248263,6.8679461 h -0.586011 q -0.347265,0 -0.347265,-0.3503662 V 4.2138446 H 30.952218 V 3.8510761 h 0.362769 V 2.9115986 h 0.406177 v 0.9394775 h 0.527099 v 0.3627685 h -0.527099 v 2.291333 h 0.527099 z"
         id="path56356" />
    </g>
    <ellipse
       style="fill:#4d4d4d;fill-opacity:0.578089;stroke:none;stroke-width:1"
       id="path90058"
       cx="-173.51614"
       cy="24.284924"
       rx="1.8342087"
       ry="2.2744188" />
    <g
       aria-label="Range"
       id="text39297"
       style="font-size:3.52778px;line-height:1.25;font-family:Bahnschrift;-inkscape-font-specification:'Bahnschrift, Normal';display:inline;fill:#f2f2f2;stroke-width:0.264583">
      <path
         d="m 15.78711,82.089734 h 0.854385 q 0.09991,0 0.177422,-0.04823 0.07752,-0.04823 0.118856,-0.136081 0.04306,-0.08957 0.04306,-0.204984 v 0 q 0,-0.11541 -0.04306,-0.20326 -0.04134,-0.08957 -0.118856,-0.137804 -0.07579,-0.04823 -0.177422,-0.04823 H 15.78711 v -0.334174 h 0.840604 q 0.217041,0 0.380684,0.08957 0.165364,0.08957 0.254937,0.254938 0.09129,0.163642 0.09129,0.37896 v 0 q 0,0.215319 -0.09129,0.380684 -0.0913,0.163642 -0.25666,0.253214 -0.163642,0.08957 -0.378961,0.08957 H 15.78711 Z m -0.153306,-1.112766 h 0.3514 v 2.506308 h -0.3514 z m 0.835436,1.369426 0.349677,-0.07924 0.640788,1.216119 h -0.416856 z"
         id="path56162" />
      <path
         d="m 18.856692,82.349839 q 0,-0.1757 -0.09474,-0.272162 -0.09302,-0.09819 -0.265272,-0.09819 -0.106798,0 -0.210151,0.03273 -0.101631,0.03273 -0.180868,0.0913 l -0.25666,-0.1757 q 0.101631,-0.122301 0.266995,-0.189481 0.167088,-0.0689 0.370348,-0.0689 0.222209,0 0.380684,0.07924 0.158474,0.07751 0.241157,0.227376 0.08268,0.148139 0.08268,0.35829 v 1.14894 h -0.334175 z m -0.437527,1.159276 q -0.330729,0 -0.494371,-0.136082 -0.163643,-0.137804 -0.163643,-0.416857 0,-0.265272 0.149862,-0.397908 0.149862,-0.132637 0.45303,-0.132637 h 0.508152 l 0.02412,0.282498 h -0.530545 q -0.137804,0 -0.206706,0.06201 -0.06718,0.06029 -0.06718,0.186035 0,0.136082 0.08957,0.201539 0.09129,0.06546 0.275608,0.06546 0.201538,0 0.299724,-0.04306 0.09991,-0.04306 0.09991,-0.134359 l 0.03617,0.251492 q -0.04651,0.07235 -0.115411,0.118856 -0.06718,0.04651 -0.156752,0.0689 -0.08957,0.02412 -0.201538,0.02412 z"
         id="path56164" />
      <path
         d="m 19.724857,81.695271 h 0.3514 v 1.788005 h -0.3514 z m 1.085206,0.704522 q 0,-0.18948 -0.09819,-0.292833 -0.09819,-0.103353 -0.275608,-0.103353 -0.172255,0 -0.266995,0.0913 -0.09302,0.0913 -0.09302,0.25666 l -0.03617,-0.34451 q 0.08268,-0.16192 0.215318,-0.24977 0.134359,-0.08785 0.296279,-0.08785 0.29111,0 0.449585,0.191203 0.160197,0.189481 0.160197,0.537436 v 1.085205 h -0.3514 z"
         id="path56166" />
      <path
         d="m 22.2949,84.210192 q -0.201538,0 -0.361735,-0.07579 -0.158475,-0.07407 -0.246325,-0.210151 v 0 l 0.237712,-0.215319 v 0 q 0.0689,0.09474 0.163642,0.146417 0.09646,0.05168 0.201538,0.05168 0.201538,0 0.311782,-0.111965 0.110243,-0.110243 0.110243,-0.313504 v -1.786283 h 0.3514 v 1.734606 q 0,0.246325 -0.09129,0.422025 -0.08957,0.1757 -0.261828,0.266995 -0.172255,0.0913 -0.415134,0.0913 z m -0.03273,-0.69591 q -0.19637,0 -0.335897,-0.0844 -0.137803,-0.08613 -0.21015,-0.249769 -0.07235,-0.163642 -0.07235,-0.392741 v -0.394464 q 0,-0.230822 0.07062,-0.394464 0.07062,-0.163642 0.204983,-0.248047 0.136082,-0.08613 0.325562,-0.08613 0.158475,0 0.289388,0.08268 0.132636,0.08268 0.213596,0.232544 l -0.03617,0.365181 q 0,-0.113689 -0.04134,-0.194648 -0.04134,-0.08096 -0.120579,-0.122301 -0.07752,-0.04306 -0.18948,-0.04306 -0.173978,0 -0.27044,0.10852 -0.09474,0.108521 -0.09474,0.304892 v 0.389296 q 0,0.194648 0.09474,0.301446 0.09646,0.105075 0.27044,0.105075 0.111965,0 0.18948,-0.04306 0.07924,-0.04479 0.120579,-0.127468 0.04134,-0.08268 0.04134,-0.198093 l 0.02412,0.377238 q -0.0534,0.132636 -0.1757,0.222209 -0.120578,0.08957 -0.298001,0.08957 z"
         id="path56168" />
      <path
         d="m 24.32923,83.509115 q -0.248047,0 -0.423747,-0.09302 -0.1757,-0.09302 -0.268718,-0.272163 -0.09129,-0.180867 -0.09129,-0.435805 v -0.201538 q 0,-0.265272 0.08785,-0.45303 0.08957,-0.187758 0.258383,-0.285943 0.168809,-0.09819 0.406521,-0.09819 0.223931,0 0.382406,0.111966 0.158474,0.111966 0.241157,0.323839 0.08441,0.211874 0.08441,0.508152 v 0.117134 h -1.205784 v -0.282498 h 0.871609 v 0 q -0.0155,-0.218764 -0.113688,-0.339343 -0.09646,-0.122301 -0.260105,-0.122301 -0.199816,0 -0.310059,0.130914 -0.10852,0.130914 -0.10852,0.370348 v 0.227377 q 0,0.222208 0.117133,0.341064 0.117133,0.118856 0.332452,0.118856 0.106798,0 0.211874,-0.04306 0.105075,-0.04306 0.187757,-0.120578 v 0 l 0.230822,0.230822 v 0 q -0.132636,0.127468 -0.298001,0.198093 -0.165365,0.0689 -0.332452,0.0689 z"
         id="path56170" />
    </g>
    <g
       aria-label="Default Scale"
       id="text52975"
       style="font-size:3.52778px;line-height:1.25;font-family:Bahnschrift;-inkscape-font-specification:'Bahnschrift, Normal';display:inline;fill:#f2f2f2;stroke-width:0.264583">
      <path
         d="m 10.349024,58.859906 h 0.566718 q 0.277331,0 0.428915,-0.142972 0.153307,-0.144694 0.153307,-0.406521 v -0.737251 q 0,-0.261828 -0.153307,-0.404799 -0.151584,-0.144694 -0.428915,-0.144694 h -0.566718 v -0.334175 h 0.556383 q 0.301446,0 0.515042,0.105076 0.213596,0.105075 0.325562,0.306613 0.111966,0.201539 0.111966,0.485759 v 0.70969 q 0,0.284221 -0.111966,0.485759 -0.111966,0.201538 -0.327284,0.306614 -0.213596,0.105075 -0.515042,0.105075 h -0.554661 z m -0.237712,-2.170412 h 0.3514 v 2.504586 h -0.3514 z"
         id="path56119" />
      <path
         d="m 13.12405,59.219919 q -0.248047,0 -0.423747,-0.09302 -0.1757,-0.09302 -0.268718,-0.272163 -0.0913,-0.180867 -0.0913,-0.435805 v -0.201538 q 0,-0.265272 0.08785,-0.45303 0.08957,-0.187758 0.258383,-0.285943 0.168809,-0.09819 0.406521,-0.09819 0.223932,0 0.382406,0.111966 0.158475,0.111966 0.241157,0.323839 0.08441,0.211874 0.08441,0.508152 v 0.117134 h -1.205784 v -0.282499 h 0.871609 v 0 q -0.0155,-0.218763 -0.113688,-0.339342 -0.09646,-0.122301 -0.260105,-0.122301 -0.199815,0 -0.310059,0.130914 -0.10852,0.130914 -0.10852,0.370348 v 0.227377 q 0,0.222208 0.117133,0.341064 0.117133,0.118856 0.332452,0.118856 0.106798,0 0.211874,-0.04306 0.105075,-0.04306 0.187757,-0.120578 v 0 l 0.230822,0.230822 v 0 q -0.132636,0.127468 -0.298001,0.198093 -0.165365,0.0689 -0.332452,0.0689 z"
         id="path56121" />
      <path
         d="m 14.335002,57.163195 q 0,-0.237711 0.10852,-0.354845 0.110244,-0.118856 0.33762,-0.118856 h 0.258382 v 0.334175 h -0.251492 q -0.04995,0 -0.07579,0.0379 -0.02584,0.0379 -0.02584,0.09819 v 2.03433 h -0.3514 z m -0.18948,0.24288 h 0.894002 v 0.299723 h -0.894002 z"
         id="path56123" />
      <path
         d="m 16.341771,58.060643 q 0,-0.1757 -0.09474,-0.272163 -0.09302,-0.09819 -0.265272,-0.09819 -0.106798,0 -0.210151,0.03273 -0.101631,0.03273 -0.180868,0.09129 l -0.25666,-0.1757 q 0.101631,-0.122301 0.266995,-0.189481 0.167087,-0.0689 0.370348,-0.0689 0.222209,0 0.380684,0.07924 0.158474,0.07751 0.241156,0.227376 0.08268,0.148139 0.08268,0.35829 v 1.14894 h -0.334175 z m -0.437527,1.159276 q -0.33073,0 -0.494372,-0.136082 -0.163642,-0.137804 -0.163642,-0.416857 0,-0.265272 0.149862,-0.397908 0.149862,-0.132637 0.45303,-0.132637 h 0.508152 l 0.02412,0.282498 h -0.530545 q -0.137804,0 -0.206706,0.06201 -0.06718,0.06029 -0.06718,0.186035 0,0.136082 0.08957,0.201539 0.0913,0.06546 0.275608,0.06546 0.201538,0 0.299723,-0.04306 0.09991,-0.04306 0.09991,-0.134359 l 0.03617,0.251492 q -0.04651,0.07235 -0.115411,0.118856 -0.06718,0.04651 -0.156752,0.0689 -0.08957,0.02412 -0.201538,0.02412 z"
         id="path56125" />
      <path
         d="m 18.288251,57.406075 h 0.349678 v 1.788005 h -0.349678 z m -0.726915,1.086928 q 0,0.187758 0.09474,0.291111 0.09646,0.10163 0.27044,0.10163 0.172255,0 0.266995,-0.0913 0.09474,-0.0913 0.09474,-0.260105 l 0.02412,0.373793 q -0.05512,0.132637 -0.179145,0.222209 -0.124023,0.08957 -0.304891,0.08957 -0.296278,0 -0.458198,-0.189481 -0.160197,-0.191203 -0.160197,-0.537435 v -1.086928 h 0.3514 z"
         id="path56127" />
      <path
         d="m 19.52332,58.732437 q 0,0.06546 0.02756,0.101631 0.02928,0.03445 0.08096,0.03445 h 0.165365 v 0.334174 h -0.206706 q -0.199816,0 -0.310059,-0.124023 -0.10852,-0.124024 -0.10852,-0.349678 v -2.039498 h 0.3514 z"
         id="path56129" />
      <path
         d="m 20.658479,59.202693 q -0.217041,0 -0.318672,-0.118856 -0.09991,-0.120578 -0.09991,-0.354845 v -1.843127 h 0.3514 v 1.846572 q 0,0.06546 0.02584,0.101631 0.02584,0.03445 0.07579,0.03445 h 0.16881 v 0.334174 z m -0.602892,-1.796618 h 0.806153 v 0.316949 h -0.806153 z"
         id="path56131" />
      <path
         d="m 23.07866,59.219919 q -0.180868,0 -0.342787,-0.03445 -0.16192,-0.03445 -0.303169,-0.103353 -0.139526,-0.0689 -0.261827,-0.172255 v 0 l 0.218763,-0.268718 v 0 q 0.142972,0.124024 0.315227,0.186035 0.172255,0.06201 0.373793,0.06201 0.272163,0 0.422024,-0.09991 0.149862,-0.10163 0.149862,-0.285943 v -0.0017 q 0,-0.130914 -0.0689,-0.206706 -0.06718,-0.07751 -0.1757,-0.113688 -0.106798,-0.0379 -0.27733,-0.0689 -0.0052,-0.0017 -0.01206,-0.0017 -0.0052,0 -0.01033,-0.0017 l -0.02584,-0.0052 q -0.251492,-0.04306 -0.409966,-0.09646 -0.156752,-0.05512 -0.268718,-0.198093 -0.111966,-0.144694 -0.111966,-0.409967 v -0.0017 q 0,-0.232544 0.103353,-0.396186 0.105076,-0.165365 0.304892,-0.251492 0.199815,-0.08613 0.480591,-0.08613 0.134358,0 0.26355,0.02928 0.130913,0.02928 0.256659,0.08785 0.127469,0.05685 0.24977,0.144695 v 0 l -0.199816,0.279052 v 0 q -0.142971,-0.105075 -0.285943,-0.156752 -0.141249,-0.0534 -0.28422,-0.0534 -0.25666,0 -0.399632,0.103353 -0.141249,0.101631 -0.141249,0.289389 v 0.0017 q 0,0.129191 0.07235,0.203261 0.07407,0.07407 0.182591,0.110243 0.110243,0.03445 0.304891,0.07235 0.0069,0.0017 0.01206,0.0034 0.0069,0 0.01378,0.0017 0.0086,0.0017 0.01895,0.0034 0.01034,0.0017 0.01895,0.0034 0.227376,0.04651 0.378961,0.110243 0.153307,0.06373 0.254937,0.206706 0.103353,0.141249 0.103353,0.387573 v 0.0034 q 0,0.229099 -0.108521,0.392741 -0.10852,0.161919 -0.315226,0.248047 -0.204983,0.0844 -0.496094,0.0844 z"
         id="path56133" />
      <path
         d="m 25.185337,59.219919 q -0.244602,0 -0.418579,-0.0913 -0.172255,-0.09129 -0.26355,-0.265272 -0.0913,-0.173977 -0.0913,-0.420302 v -0.294556 q 0,-0.242879 0.0913,-0.415134 0.09129,-0.172255 0.26355,-0.261828 0.173977,-0.0913 0.418579,-0.0913 0.139527,0 0.261828,0.03445 0.124023,0.03273 0.222209,0.09646 0.09818,0.06373 0.163642,0.15503 v 0 l -0.253215,0.227376 v 0 q -0.07579,-0.08613 -0.177422,-0.132636 -0.101631,-0.04651 -0.211874,-0.04651 -0.203261,0 -0.315226,0.113688 -0.111966,0.113688 -0.111966,0.320394 v 0.294556 q 0,0.211874 0.110243,0.327284 0.111966,0.115411 0.316949,0.115411 0.111966,0 0.213596,-0.04995 0.10163,-0.04995 0.1757,-0.141249 v 0 l 0.253215,0.244602 v 0 q -0.06718,0.08957 -0.165365,0.153307 -0.09819,0.06201 -0.222209,0.09474 -0.122301,0.03273 -0.260105,0.03273 z"
         id="path56135" />
      <path
         d="m 27.230003,58.060643 q 0,-0.1757 -0.09474,-0.272163 -0.09302,-0.09819 -0.265273,-0.09819 -0.106798,0 -0.210151,0.03273 -0.10163,0.03273 -0.180867,0.09129 l -0.25666,-0.1757 q 0.10163,-0.122301 0.266995,-0.189481 0.167087,-0.0689 0.370348,-0.0689 0.222209,0 0.380683,0.07924 0.158475,0.07751 0.241157,0.227376 0.08268,0.148139 0.08268,0.35829 v 1.14894 h -0.334174 z m -0.437527,1.159276 q -0.33073,0 -0.494372,-0.136082 -0.163642,-0.137804 -0.163642,-0.416857 0,-0.265272 0.149862,-0.397908 0.149861,-0.132637 0.45303,-0.132637 h 0.508152 l 0.02412,0.282498 h -0.530545 q -0.137804,0 -0.206706,0.06201 -0.06718,0.06029 -0.06718,0.186035 0,0.136082 0.08957,0.201539 0.0913,0.06546 0.275608,0.06546 0.201538,0 0.299723,-0.04306 0.09991,-0.04306 0.09991,-0.134359 l 0.03617,0.251492 q -0.04651,0.07235 -0.115411,0.118856 -0.06718,0.04651 -0.156752,0.0689 -0.08957,0.02412 -0.201538,0.02412 z"
         id="path56137" />
      <path
         d="m 28.449568,58.732437 q 0,0.06546 0.02756,0.101631 0.02928,0.03445 0.08096,0.03445 h 0.165364 v 0.334174 h -0.206706 q -0.199815,0 -0.310058,-0.124023 -0.108521,-0.124024 -0.108521,-0.349678 v -2.039498 h 0.3514 z"
         id="path56139" />
      <path
         d="m 29.851722,59.219919 q -0.248047,0 -0.423747,-0.09302 -0.1757,-0.09302 -0.268717,-0.272163 -0.0913,-0.180867 -0.0913,-0.435805 v -0.201538 q 0,-0.265272 0.08785,-0.45303 0.08957,-0.187758 0.258382,-0.285943 0.16881,-0.09819 0.406522,-0.09819 0.223931,0 0.382405,0.111966 0.158475,0.111966 0.241157,0.323839 0.0844,0.211874 0.0844,0.508152 v 0.117134 H 29.3229 v -0.282499 h 0.87161 v 0 q -0.0155,-0.218763 -0.113689,-0.339342 -0.09646,-0.122301 -0.260104,-0.122301 -0.199816,0 -0.310059,0.130914 -0.108521,0.130914 -0.108521,0.370348 v 0.227377 q 0,0.222208 0.117133,0.341064 0.117134,0.118856 0.332452,0.118856 0.106798,0 0.211874,-0.04306 0.105075,-0.04306 0.187758,-0.120578 v 0 l 0.230821,0.230822 v 0 q -0.132636,0.127468 -0.298001,0.198093 -0.165364,0.0689 -0.332452,0.0689 z"
         id="path56141" />
    </g>
    <g
       aria-label="Default Note"
       id="text49729"
       style="font-size:3.52778px;line-height:1.25;font-family:Bahnschrift;-inkscape-font-specification:'Bahnschrift, Normal';display:inline;fill:#f2f2f2;stroke-width:0.264583">
      <path
         d="m 10.991535,34.319005 h 0.566719 q 0.27733,0 0.428914,-0.142972 0.153307,-0.144694 0.153307,-0.406521 v -0.737251 q 0,-0.261828 -0.153307,-0.404799 -0.151584,-0.144694 -0.428914,-0.144694 h -0.566719 v -0.334175 h 0.556384 q 0.301446,0 0.515042,0.105076 0.213596,0.105075 0.325561,0.306613 0.111966,0.201539 0.111966,0.485759 v 0.70969 q 0,0.284221 -0.111966,0.485759 -0.111965,0.201538 -0.327284,0.306614 -0.213596,0.105075 -0.515042,0.105075 h -0.554661 z m -0.237712,-2.170412 h 0.3514 v 2.504586 h -0.3514 z"
         id="path56078" />
      <path
         d="m 13.766561,34.679017 q -0.248047,0 -0.423747,-0.09302 -0.1757,-0.09302 -0.268717,-0.272163 -0.0913,-0.180868 -0.0913,-0.435805 v -0.201538 q 0,-0.265273 0.08785,-0.45303 0.08957,-0.187758 0.258382,-0.285943 0.16881,-0.09819 0.406522,-0.09819 0.223931,0 0.382405,0.111966 0.158475,0.111966 0.241157,0.323839 0.08441,0.211874 0.08441,0.508152 v 0.117133 h -1.205784 v -0.282498 h 0.87161 v 0 q -0.0155,-0.218763 -0.113689,-0.339342 -0.09646,-0.122301 -0.260104,-0.122301 -0.199816,0 -0.310059,0.130914 -0.108521,0.130914 -0.108521,0.370348 v 0.227376 q 0,0.222209 0.117134,0.341065 0.117133,0.118856 0.332451,0.118856 0.106798,0 0.211874,-0.04306 0.105075,-0.04306 0.187758,-0.120578 v 0 l 0.230821,0.230821 v 0 q -0.132636,0.127469 -0.298001,0.198093 -0.165364,0.0689 -0.332452,0.0689 z"
         id="path56080" />
      <path
         d="m 14.977513,32.622294 q 0,-0.237712 0.108521,-0.354845 0.110243,-0.118856 0.337619,-0.118856 h 0.258383 v 0.334175 h -0.251492 q -0.04995,0 -0.07579,0.0379 -0.02584,0.0379 -0.02584,0.09819 v 2.03433 h -0.3514 z m -0.18948,0.242879 h 0.894003 v 0.299724 h -0.894003 z"
         id="path56082" />
      <path
         d="m 16.984283,33.519742 q 0,-0.1757 -0.09474,-0.272163 -0.09302,-0.09819 -0.265272,-0.09819 -0.106798,0 -0.210151,0.03273 -0.10163,0.03273 -0.180868,0.0913 l -0.256659,-0.1757 q 0.10163,-0.122301 0.266995,-0.189481 0.167087,-0.0689 0.370348,-0.0689 0.222208,0 0.380683,0.07924 0.158474,0.07752 0.241157,0.227377 0.08268,0.148139 0.08268,0.35829 v 1.14894 h -0.334174 z m -0.437528,1.159275 q -0.330729,0 -0.494371,-0.136081 -0.163642,-0.137804 -0.163642,-0.416857 0,-0.265272 0.149861,-0.397909 0.149862,-0.132636 0.453031,-0.132636 h 0.508152 l 0.02411,0.282498 h -0.530545 q -0.137804,0 -0.206706,0.06201 -0.06718,0.06029 -0.06718,0.186035 0,0.136082 0.08957,0.201538 0.0913,0.06546 0.275608,0.06546 0.201539,0 0.299724,-0.04306 0.09991,-0.04306 0.09991,-0.134359 l 0.03617,0.251492 q -0.04651,0.07235 -0.115411,0.118856 -0.06718,0.04651 -0.156752,0.0689 -0.08957,0.02412 -0.201538,0.02412 z"
         id="path56084" />
      <path
         d="m 18.930763,32.865173 h 0.349677 v 1.788006 h -0.349677 z m -0.726916,1.086929 q 0,0.187758 0.09474,0.291111 0.09646,0.10163 0.270441,0.10163 0.172254,0 0.266995,-0.09129 0.09474,-0.0913 0.09474,-0.260105 l 0.02412,0.373793 q -0.05512,0.132636 -0.179146,0.222209 -0.124023,0.08957 -0.304891,0.08957 -0.296278,0 -0.458198,-0.18948 -0.160197,-0.191203 -0.160197,-0.537435 v -1.086929 h 0.3514 z"
         id="path56086" />
      <path
         d="m 20.165831,34.191536 q 0,0.06546 0.02756,0.10163 0.02928,0.03445 0.08096,0.03445 h 0.165365 v 0.334175 H 20.23301 q -0.199815,0 -0.310058,-0.124024 -0.108521,-0.124023 -0.108521,-0.349677 v -2.039498 h 0.3514 z"
         id="path56088" />
      <path
         d="m 21.30099,34.661792 q -0.217041,0 -0.318671,-0.118856 -0.09991,-0.120578 -0.09991,-0.354845 v -1.843127 h 0.3514 v 1.846572 q 0,0.06546 0.02584,0.10163 0.02584,0.03445 0.07579,0.03445 h 0.16881 v 0.334175 z m -0.602892,-1.796619 h 0.806153 v 0.316949 h -0.806153 z"
         id="path56090" />
      <path
         d="m 22.968417,32.148593 h 0.318672 l 1.224732,1.936145 -0.04134,0.04479 v -1.980931 h 0.347955 v 2.502864 h -0.322117 l -1.221287,-1.906862 0.04134,-0.04479 v 1.951648 h -0.347955 z"
         id="path56092" />
      <path
         d="m 26.089676,34.679017 q -0.232545,0 -0.397909,-0.0913 -0.165365,-0.0913 -0.253215,-0.265272 -0.08613,-0.1757 -0.08613,-0.422025 v -0.29111 q 0,-0.24288 0.08613,-0.415135 0.08785,-0.173977 0.253215,-0.26355 0.165364,-0.0913 0.397909,-0.0913 0.232544,0 0.397908,0.0913 0.165365,0.08957 0.251492,0.26355 0.08785,0.172255 0.08785,0.415135 v 0.296278 q 0,0.244602 -0.08785,0.418579 -0.08613,0.172255 -0.251492,0.26355 -0.165364,0.0913 -0.397908,0.0913 z m 0,-0.334174 q 0.184312,0 0.28422,-0.115411 0.101631,-0.115411 0.101631,-0.323839 v -0.296278 q 0,-0.208429 -0.101631,-0.322117 -0.09991,-0.113688 -0.28422,-0.113688 -0.184313,0 -0.285944,0.113688 -0.09991,0.113688 -0.09991,0.322117 v 0.296278 q 0,0.208428 0.09991,0.323839 0.101631,0.115411 0.285944,0.115411 z"
         id="path56094" />
      <path
         d="m 27.791555,34.661792 q -0.217042,0 -0.318672,-0.118856 -0.09991,-0.120578 -0.09991,-0.354845 v -1.843127 h 0.3514 v 1.846572 q 0,0.06546 0.02584,0.10163 0.02584,0.03445 0.07579,0.03445 h 0.16881 v 0.334175 z m -0.602893,-1.796619 h 0.806153 v 0.316949 h -0.806153 z"
         id="path56096" />
      <path
         d="m 29.209211,34.679017 q -0.248047,0 -0.423747,-0.09302 -0.1757,-0.09302 -0.268718,-0.272163 -0.0913,-0.180868 -0.0913,-0.435805 v -0.201538 q 0,-0.265273 0.08785,-0.45303 0.08957,-0.187758 0.258383,-0.285943 0.168809,-0.09819 0.406521,-0.09819 0.223932,0 0.382406,0.111966 0.158475,0.111966 0.241157,0.323839 0.08441,0.211874 0.08441,0.508152 v 0.117133 h -1.205784 v -0.282498 h 0.871609 v 0 q -0.0155,-0.218763 -0.113688,-0.339342 -0.09646,-0.122301 -0.260105,-0.122301 -0.199816,0 -0.310059,0.130914 -0.10852,0.130914 -0.10852,0.370348 v 0.227376 q 0,0.222209 0.117133,0.341065 0.117133,0.118856 0.332452,0.118856 0.106798,0 0.211874,-0.04306 0.105075,-0.04306 0.187757,-0.120578 v 0 l 0.230822,0.230821 v 0 q -0.132636,0.127469 -0.298001,0.198093 -0.165365,0.0689 -0.332452,0.0689 z"
         id="path56098" />
    </g>
    <g
       aria-label="Input"
       id="text4839"
       style="font-size:3.52778px;line-height:1.25;font-family:Bahnschrift;-inkscape-font-specification:'Bahnschrift, Normal';display:inline;fill:#f2f2f2;stroke-width:0.264583">
      <path
         d="m 6.7944744,116.20447 h -0.3514 v -2.50459 h 0.3514 z"
         id="path56259" />
      <path
         d="m 7.380141,114.41646 h 0.3514 v 1.78801 h -0.3514 z m 1.0852058,0.70452 q 0,-0.18948 -0.098185,-0.29283 -0.098185,-0.10335 -0.2756078,-0.10335 -0.1722549,0 -0.2669951,0.0913 -0.093018,0.0913 -0.093018,0.25666 l -0.036174,-0.34451 q 0.082682,-0.16192 0.2153186,-0.24977 0.1343588,-0.0879 0.2962784,-0.0879 0.2911107,0 0.4495852,0.19121 0.1601971,0.18948 0.1601971,0.53743 v 1.08521 h -0.3514 z"
         id="path56261" />
      <path
         d="m 9.3507368,114.41646 h 0.3514 v 2.51492 h -0.3514 z m 0.8009852,1.81385 q -0.1670872,0 -0.2911107,-0.0792 -0.1240235,-0.081 -0.1825902,-0.22738 l 0.024116,-0.37379 q 0,0.11541 0.041341,0.19637 0.041341,0.081 0.1188559,0.12402 0.079237,0.0431 0.1912031,0.0431 0.173977,0 0.268717,-0.10508 0.09646,-0.1068 0.09646,-0.29972 v -0.38758 q 0,-0.19637 -0.09646,-0.30489 -0.09474,-0.10852 -0.268717,-0.10852 -0.1119659,0 -0.1912031,0.0413 -0.077515,0.0414 -0.1188559,0.1223 -0.041341,0.0792 -0.041341,0.19121 l -0.036174,-0.34451 q 0.08096,-0.15675 0.2118735,-0.24116 0.1309142,-0.0861 0.2911112,-0.0861 0.18948,0 0.323839,0.0861 0.136081,0.0844 0.206706,0.24805 0.07062,0.16364 0.07062,0.39446 v 0.3893 q 0,0.22737 -0.07235,0.38929 -0.07235,0.16192 -0.211873,0.24805 -0.139527,0.0844 -0.334175,0.0844 z"
         id="path56263" />
      <path
         d="m 12.304908,114.41646 h 0.349678 v 1.78801 h -0.349678 z m -0.726915,1.08693 q 0,0.18776 0.09474,0.29111 0.09646,0.10163 0.27044,0.10163 0.172255,0 0.266995,-0.0913 0.09474,-0.0913 0.09474,-0.26011 l 0.02412,0.37379 q -0.05512,0.13264 -0.179145,0.22221 -0.124024,0.0896 -0.304891,0.0896 -0.296279,0 -0.458198,-0.18948 -0.160197,-0.19121 -0.160197,-0.53744 v -1.08693 h 0.3514 z"
         id="path56265" />
      <path
         d="m 13.653664,116.21308 q -0.217041,0 -0.318672,-0.11886 -0.09991,-0.12057 -0.09991,-0.35484 v -1.84313 h 0.3514 v 1.84657 q 0,0.0655 0.02584,0.10164 0.02584,0.0345 0.07579,0.0345 h 0.168809 v 0.33417 z m -0.602892,-1.79662 h 0.806152 v 0.31695 h -0.806152 z"
         id="path56267" />
    </g>
    <g
       aria-label="Output"
       id="text12051"
       style="font-size:3.52778px;line-height:1.25;font-family:Bahnschrift;-inkscape-font-specification:'Bahnschrift, Normal';display:inline;fill:#f2f2f2;stroke-width:0.264583">
      <path
         d="m 26.373586,116.24581 q -0.261827,0 -0.461643,-0.11369 -0.199815,-0.11541 -0.310059,-0.32384 -0.10852,-0.21015 -0.10852,-0.48576 v -0.70969 q 0,-0.27561 0.10852,-0.48403 0.110244,-0.21015 0.310059,-0.32384 0.199816,-0.11541 0.461643,-0.11541 0.261828,0 0.461643,0.11541 0.199816,0.11369 0.308337,0.32384 0.110243,0.20842 0.110243,0.48403 v 0.70969 q 0,0.27561 -0.110243,0.48576 -0.108521,0.20843 -0.308337,0.32384 -0.199815,0.11369 -0.461643,0.11369 z m 0,-0.34623 q 0.15503,0 0.272163,-0.0689 0.118856,-0.0706 0.18259,-0.19809 0.06546,-0.12919 0.06546,-0.298 v -0.73381 q 0,-0.16881 -0.06546,-0.29627 -0.06373,-0.12919 -0.18259,-0.1981 -0.117133,-0.0706 -0.272163,-0.0706 -0.155029,0 -0.273885,0.0706 -0.117133,0.0689 -0.18259,0.1981 -0.06373,0.12746 -0.06373,0.29627 v 0.73381 q 0,0.16881 0.06373,0.298 0.06546,0.12747 0.18259,0.19809 0.118856,0.0689 0.273885,0.0689 z"
         id="path56228" />
      <path
         d="m 28.866114,114.43196 h 0.349678 v 1.78801 h -0.349678 z m -0.726915,1.08693 q 0,0.18776 0.09474,0.29111 0.09646,0.10163 0.27044,0.10163 0.172255,0 0.266995,-0.0913 0.09474,-0.0913 0.09474,-0.26011 l 0.02412,0.3738 q -0.05512,0.13263 -0.179145,0.22221 -0.124023,0.0896 -0.304891,0.0896 -0.296278,0 -0.458198,-0.18948 -0.160197,-0.1912 -0.160197,-0.53744 v -1.08693 h 0.3514 z"
         id="path56230" />
      <path
         d="m 30.214871,116.22858 q -0.217042,0 -0.318672,-0.11885 -0.09991,-0.12058 -0.09991,-0.35485 v -1.84312 h 0.3514 v 1.84657 q 0,0.0654 0.02584,0.10163 0.02584,0.0344 0.07579,0.0344 h 0.16881 v 0.33417 z m -0.602893,-1.79662 h 0.806153 v 0.31695 h -0.806153 z"
         id="path56232" />
      <path
         d="m 30.900445,114.43196 h 0.3514 v 2.51493 h -0.3514 z m 0.800985,1.81385 q -0.167087,0 -0.291111,-0.0792 -0.124023,-0.081 -0.18259,-0.22737 l 0.02412,-0.3738 q 0,0.11541 0.04134,0.19637 0.04134,0.081 0.118856,0.12403 0.07924,0.0431 0.191203,0.0431 0.173977,0 0.268717,-0.10508 0.09646,-0.10679 0.09646,-0.29972 v -0.38757 q 0,-0.19637 -0.09646,-0.30489 -0.09474,-0.10852 -0.268717,-0.10852 -0.111966,0 -0.191203,0.0413 -0.07751,0.0413 -0.118856,0.1223 -0.04134,0.0792 -0.04134,0.1912 l -0.03617,-0.34451 q 0.08096,-0.15675 0.211874,-0.24116 0.130913,-0.0861 0.29111,-0.0861 0.189481,0 0.32384,0.0861 0.136081,0.0844 0.206705,0.24805 0.07062,0.16364 0.07062,0.39446 v 0.3893 q 0,0.22738 -0.07235,0.3893 -0.07235,0.16192 -0.211874,0.24804 -0.139526,0.0844 -0.334174,0.0844 z"
         id="path56234" />
      <path
         d="m 33.854616,114.43196 h 0.349677 v 1.78801 h -0.349677 z m -0.726916,1.08693 q 0,0.18776 0.09474,0.29111 0.09646,0.10163 0.270441,0.10163 0.172254,0 0.266995,-0.0913 0.09474,-0.0913 0.09474,-0.26011 l 0.02412,0.3738 q -0.05512,0.13263 -0.179145,0.22221 -0.124023,0.0896 -0.304891,0.0896 -0.296278,0 -0.458198,-0.18948 -0.160197,-0.1912 -0.160197,-0.53744 v -1.08693 h 0.3514 z"
         id="path56236" />
      <path
         d="m 35.203372,116.22858 q -0.217041,0 -0.318671,-0.11885 -0.09991,-0.12058 -0.09991,-0.35485 v -1.84312 h 0.3514 v 1.84657 q 0,0.0654 0.02584,0.10163 0.02584,0.0344 0.07579,0.0344 h 0.16881 v 0.33417 z m -0.602892,-1.79662 h 0.806153 v 0.31695 H 34.60048 Z"
         id="path56238" />
    </g>
    <g
       aria-label="Guide CV In"
       id="text22997"
       style="font-size:3.52778px;line-height:1.25;font-family:Bahnschrift;-inkscape-font-specification:'Bahnschrift, Normal';display:inline;fill:#f2f2f2;stroke-width:0.264583">
      <path
         d="m 13.336785,100.00532 v 0.43753 q 0,0.27905 -0.108521,0.49265 -0.108521,0.21187 -0.308336,0.32901 -0.198093,0.11541 -0.459921,0.11541 -0.265272,0 -0.46681,-0.10852 -0.199816,-0.11025 -0.310059,-0.31006 -0.110243,-0.19982 -0.110243,-0.46337 V 99.759 q 0,-0.279053 0.10852,-0.490926 0.108521,-0.211874 0.306614,-0.327285 0.199816,-0.117133 0.461643,-0.117133 0.215319,0 0.396186,0.09302 0.18259,0.0913 0.304891,0.260104 0.122301,0.16881 0.165365,0.391019 v 0 h -0.380683 v 0 q -0.03101,-0.125746 -0.105076,-0.215319 -0.07407,-0.0913 -0.173977,-0.137803 -0.09991,-0.04823 -0.206706,-0.04823 -0.155029,0 -0.272163,0.07407 -0.117133,0.07407 -0.180867,0.208428 -0.06373,0.132636 -0.06373,0.310059 v 0.73897 q 0,0.16192 0.06546,0.28422 0.06546,0.12058 0.184313,0.18776 0.120578,0.0672 0.27733,0.0672 0.15503,0 0.272163,-0.0689 0.117133,-0.0706 0.180868,-0.20326 0.06373,-0.13264 0.06373,-0.31523 v -0.10852 H 12.46862 v -0.3359 z"
         id="path56191" />
      <path
         d="m 14.94909,99.566074 h 0.349678 v 1.788006 H 14.94909 Z M 14.222175,100.653 q 0,0.18776 0.09474,0.29111 0.09646,0.10163 0.27044,0.10163 0.172255,0 0.266995,-0.0913 0.09474,-0.0913 0.09474,-0.26011 l 0.02412,0.3738 q -0.05512,0.13263 -0.179145,0.22221 -0.124024,0.0896 -0.304891,0.0896 -0.296279,0 -0.458198,-0.18948 -0.160197,-0.1912 -0.160197,-0.53744 v -1.086926 h 0.3514 z"
         id="path56193" />
      <path
         d="m 15.832758,98.849494 h 0.3514 v 0.3514 h -0.3514 z m 0,0.71658 h 0.3514 v 1.788006 h -0.3514 z"
         id="path56195" />
      <path
         d="m 17.734452,98.849494 h 0.3514 v 2.504586 h -0.3514 z m -0.449585,2.535596 q -0.196371,0 -0.335897,-0.0844 -0.137804,-0.0861 -0.210151,-0.24977 -0.07235,-0.16364 -0.07235,-0.39274 v -0.39446 q 0,-0.23082 0.07062,-0.394467 0.07062,-0.163642 0.204983,-0.248047 0.136082,-0.08613 0.325562,-0.08613 0.158475,0 0.289388,0.08268 0.132637,0.08268 0.213596,0.232544 l -0.03617,0.365185 q 0,-0.11369 -0.04134,-0.19465 -0.04134,-0.08096 -0.120579,-0.122304 -0.07751,-0.04306 -0.18948,-0.04306 -0.173978,0 -0.27044,0.10852 -0.09474,0.108517 -0.09474,0.304887 v 0.3893 q 0,0.19465 0.09474,0.30145 0.09646,0.10507 0.27044,0.10507 0.111966,0 0.18948,-0.0431 0.07924,-0.0448 0.120579,-0.12747 0.04134,-0.0827 0.04134,-0.19809 l 0.02411,0.37723 q -0.0534,0.13264 -0.175699,0.22221 -0.120579,0.0896 -0.298001,0.0896 z"
         id="path56197" />
      <path
         d="m 19.351925,101.37992 q -0.248047,0 -0.423747,-0.093 -0.1757,-0.093 -0.268718,-0.27216 -0.09129,-0.18087 -0.09129,-0.43581 v -0.20154 q 0,-0.26527 0.08785,-0.453025 0.08957,-0.187758 0.258383,-0.285943 0.168809,-0.09819 0.406521,-0.09819 0.223932,0 0.382406,0.111966 0.158475,0.111966 0.241157,0.323839 0.08441,0.211869 0.08441,0.508149 v 0.11714 h -1.205784 v -0.2825 h 0.871609 v 0 q -0.0155,-0.21877 -0.113688,-0.339344 -0.09646,-0.122301 -0.260105,-0.122301 -0.199815,0 -0.310059,0.130914 -0.10852,0.130911 -0.10852,0.370351 v 0.22737 q 0,0.22221 0.117133,0.34107 0.117133,0.11885 0.332452,0.11885 0.106798,0 0.211874,-0.0431 0.105075,-0.0431 0.187757,-0.12058 v 0 l 0.230822,0.23082 v 0 q -0.132636,0.12747 -0.298001,0.1981 -0.165365,0.0689 -0.332452,0.0689 z"
         id="path56199" />
      <path
         d="m 22.312987,101.37992 q -0.260105,0 -0.458198,-0.11541 -0.196371,-0.11541 -0.304891,-0.32729 -0.108521,-0.21187 -0.108521,-0.49092 V 99.759 q 0,-0.279053 0.108521,-0.490926 0.10852,-0.211874 0.304891,-0.327285 0.198093,-0.117133 0.458198,-0.117133 0.215318,0 0.396186,0.09302 0.180868,0.0913 0.301446,0.260104 0.122301,0.16881 0.165365,0.391019 v 0 h -0.360013 v 0 q -0.03273,-0.117133 -0.110243,-0.208428 -0.07579,-0.09302 -0.179145,-0.142972 -0.103353,-0.04995 -0.213596,-0.04995 -0.153307,0 -0.268718,0.07407 -0.115411,0.07407 -0.179145,0.208428 -0.06373,0.132636 -0.06373,0.310059 v 0.6873 q 0,0.1757 0.06373,0.31006 0.06373,0.13435 0.179145,0.20842 0.115411,0.0724 0.268718,0.0724 0.111966,0 0.213596,-0.0465 0.103353,-0.0465 0.179145,-0.1378 0.07751,-0.0913 0.110243,-0.21704 v 0 h 0.360013 v 0 q -0.04306,0.22221 -0.165365,0.39102 -0.122301,0.16881 -0.303168,0.26182 -0.180868,0.0913 -0.394464,0.0913 z"
         id="path56201" />
      <path
         d="m 23.417141,98.849494 h 0.382406 l 0.601169,1.963706 0.60117,-1.963706 h 0.382405 l -0.816488,2.504586 h -0.334174 z"
         id="path56203" />
      <path
         d="m 27.044828,101.35408 h -0.3514 v -2.504586 h 0.3514 z"
         id="path56205" />
      <path
         d="m 27.630495,99.566074 h 0.3514 v 1.788006 h -0.3514 z m 1.085206,0.704526 q 0,-0.18948 -0.09819,-0.292836 -0.09819,-0.103353 -0.275607,-0.103353 -0.172255,0 -0.266996,0.0913 -0.09302,0.09129 -0.09302,0.256664 l -0.03617,-0.344514 q 0.08268,-0.16192 0.215319,-0.24977 0.134359,-0.08785 0.296278,-0.08785 0.291111,0 0.449586,0.191203 0.160197,0.189481 0.160197,0.537431 v 1.08521 h -0.3514 z"
         id="path56207" />
    </g>
  </g>
  <g
     inkscape:groupmode="layer"
     id="layer2"
     inkscape:label="components"
     style="display:none">
    <circle
       style="fill:#00ff00;fill-opacity:0.956863;stroke:none;stroke-width:0.411417"
       id="circle1266"
       cx="10.15"
       cy="109.21671"
       r="2.0899999" />
    <circle
       style="fill:#0000ff;fill-opacity:0.956863;stroke:none;stroke-width:0.411417"
       id="circle2326"
       cx="30.449999"
       cy="109.21671"
       r="2.0899999" />
    <circle
       style="fill:#00ff00;fill-opacity:0.956863;stroke:none;stroke-width:0.411417"
       id="circle22993"
       cx="20.319998"
       cy="94.366318"
       r="2.0899999" />
    <circle
       style="fill:#ff0000;fill-opacity:0.956863;stroke:none;stroke-width:1"
       id="circle25523"
       cx="20.319998"
       cy="72.964035"
       r="5.0799999" />
    <circle
       style="fill:#ff0000;fill-opacity:0.956863;stroke:none;stroke-width:1"
       id="circle52971"
       cx="20.319998"
       cy="48.423141"
       r="5.0799999" />
    <circle
       style="fill:#ff0000;fill-opacity:0.956863;stroke:none;stroke-width:1"
       id="circle25521"
       cx="20.319998"
       cy="23.378836"
       r="5.0799999" />
  </g>
</svg>
