<?xml version="1.0" encoding="UTF-8" standalone="no"?>
<!-- Created with Inkscape (http://www.inkscape.org/) -->

<svg
   width="127mm"
   height="128.5mm"
   viewBox="0 0 127 128.5"
   version="1.1"
   id="svg5"
   inkscape:version="1.1.2 (b8e25be833, 2022-02-05)"
   sodipodi:docname="PolyOsc.svg"
   xmlns:inkscape="http://www.inkscape.org/namespaces/inkscape"
   xmlns:sodipodi="http://sodipodi.sourceforge.net/DTD/sodipodi-0.dtd"
   xmlns="http://www.w3.org/2000/svg"
   xmlns:svg="http://www.w3.org/2000/svg">
  <sodipodi:namedview
     id="namedview7"
     pagecolor="#ffffff"
     bordercolor="#666666"
     borderopacity="1.0"
     inkscape:pageshadow="2"
     inkscape:pageopacity="0.0"
     inkscape:pagecheckerboard="0"
     inkscape:document-units="mm"
     showgrid="false"
     inkscape:snap-page="false"
     inkscape:showpageshadow="false"
     inkscape:zoom="1.0483388"
     inkscape:cx="305.72178"
     inkscape:cy="209.85582"
     inkscape:window-width="1920"
     inkscape:window-height="1017"
     inkscape:window-x="-8"
     inkscape:window-y="-8"
     inkscape:window-maximized="1"
     inkscape:current-layer="layer2"
     showguides="true"
     inkscape:guide-bbox="true"
     inkscape:snap-to-guides="false">
    <sodipodi:guide
       position="-3.0286011,49.756373"
       orientation="0,-1"
       id="guide1180" />
    <sodipodi:guide
       position="-22.966891,119.66658"
       orientation="0,-1"
       id="guide1182" />
    <sodipodi:guide
       position="-17.66684,8.8702584"
       orientation="0,-1"
       id="guide1184" />
    <sodipodi:guide
       position="63.348239,16.946528"
       orientation="1,0"
       id="guide1188" />
    <sodipodi:guide
       position="120.89166,-29.744406"
       orientation="1,0"
       id="guide1190" />
  </sodipodi:namedview>
  <defs
     id="defs2" />
  <g
     inkscape:label="Layer 1"
     inkscape:groupmode="layer"
     id="layer1">
    <g
       id="g9080"
       sodipodi:insensitive="true">
      <rect
         style="fill:#1a1a1a;stroke:none;stroke-width:2.11667;stroke-linecap:round;stroke-linejoin:round;paint-order:fill markers stroke"
         id="rect846"
         width="127"
         height="128.5"
         x="0"
         y="0" />
      <g
         aria-label="RosEngineering"
         id="text3402"
         style="font-weight:bold;font-stretch:condensed;font-size:4.93889px;line-height:1.25;font-family:'Agency FB';-inkscape-font-specification:'Agency FB, Bold Condensed';fill:#e6e6e6;stroke-width:0.264583">
        <path
           d="M 52.658803,125.39799 H 52.07038 l -0.622184,-1.75321 q 0,0 0,-0.34003 h 0.554661 v -1.19614 h -0.711413 v 3.28938 h -0.564307 v -3.77411 h 1.497584 q 0.340031,0 0.340031,0.34727 v 1.37218 q 0,0.23875 -0.161575,0.30868 -0.08682,0.0362 -0.366558,0.0362 z"
           id="path8965" />
        <path
           d="m 54.580822,125.09654 q 0,0.30145 -0.306269,0.30145 H 53.28581 q -0.311092,0 -0.311092,-0.30145 v -1.83279 q 0,-0.30145 0.311092,-0.30145 h 0.988743 q 0.306269,0 0.306269,0.30145 z m -0.540191,-0.15675 v -1.51688 h -0.52331 v 1.51688 z"
           id="path8967" />
        <path
           d="m 56.510076,125.09654 q 0,0.30145 -0.306269,0.30145 h -0.928454 q -0.306269,0 -0.306269,-0.30145 v -0.52331 h 0.528134 v 0.40997 h 0.484725 v -0.38585 l -0.846461,-0.4992 q -0.166398,-0.0989 -0.166398,-0.26527 v -0.56913 q 0,-0.30145 0.311092,-0.30145 h 0.918808 q 0.306269,0 0.306269,0.30145 v 0.48955 h -0.52331 v -0.37621 h -0.484725 v 0.35209 l 0.844048,0.49437 q 0.16881,0.0965 0.16881,0.2701 z"
           id="path8969" />
        <path
           d="m 58.489973,125.39799 h -1.565107 v -3.77411 h 1.550637 v 0.4992 h -0.986331 v 1.10209 h 0.848872 v 0.48954 h -0.848872 v 1.18408 h 1.000801 z"
           id="path8971" />
        <path
           d="m 60.472281,125.39799 h -0.55466 v -1.97508 l -0.518487,0.01 v 1.96543 h -0.552249 v -2.43569 h 0.552249 v 0.0892 q 0.192925,-0.0314 0.383439,-0.0603 0.236334,-0.0386 0.388263,-0.0386 0.301445,0 0.301445,0.29662 z"
           id="path8973" />
        <path
           d="m 62.483528,125.98641 q 0,0.30145 -0.311092,0.30145 h -0.959804 q -0.311092,0 -0.311092,-0.30145 v -0.39067 h 0.532956 v 0.2918 h 0.499195 v -0.50402 h -0.566718 q -0.231511,0 -0.36897,-0.13023 -0.135048,-0.13022 -0.135048,-0.35932 v -1.49035 q 0,-0.20981 0.118167,-0.33038 0.118167,-0.12058 0.325561,-0.12058 0.103698,0 0.627008,0.0989 v -0.0892 h 0.549837 z m -0.549837,-1.04662 v -1.49758 q -0.27733,-0.0289 -0.344854,-0.0289 -0.178456,0 -0.178456,0.17604 v 1.1672 q 0,0.18328 0.183279,0.18328 z"
           id="path8975" />
        <path
           d="m 63.445744,122.61263 h -0.552249 v -0.56913 h 0.552249 z m -0.0048,2.78536 h -0.542603 v -2.43569 h 0.542603 z"
           id="path8977" />
        <path
           d="m 65.476284,125.39799 h -0.55466 v -1.97508 l -0.518487,0.01 v 1.96543 h -0.552249 v -2.43569 h 0.552249 v 0.0892 q 0.192925,-0.0314 0.383439,-0.0603 0.236333,-0.0386 0.388262,-0.0386 0.301446,0 0.301446,0.29662 z"
           id="path8979" />
        <path
           d="m 67.446534,125.09654 q 0,0.30145 -0.311092,0.30145 h -0.952569 q -0.311092,0 -0.311092,-0.30145 v -1.83279 q 0,-0.30145 0.311092,-0.30145 h 0.952569 q 0.311092,0 0.311092,0.30145 v 0.89469 l -0.151929,0.15193 h -0.894691 v 0.68247 h 0.518487 v -0.40514 h 0.528133 z m -0.528133,-1.14549 v -0.5836 h -0.518487 v 0.5836 z"
           id="path8981" />
        <path
           d="m 69.421607,125.09654 q 0,0.30145 -0.311092,0.30145 h -0.952569 q -0.311092,0 -0.311092,-0.30145 v -1.83279 q 0,-0.30145 0.311092,-0.30145 h 0.952569 q 0.311092,0 0.311092,0.30145 v 0.89469 l -0.151929,0.15193 h -0.894691 v 0.68247 h 0.518487 v -0.40514 h 0.528133 z m -0.528133,-1.14549 v -0.5836 h -0.518487 v 0.5836 z"
           id="path8983" />
        <path
           d="m 71.358097,123.97999 h -0.547426 v -0.55708 l -0.436494,0.01 v 1.96543 h -0.552249 v -2.43569 h 0.552249 v 0.0892 q 0.171222,-0.0314 0.340031,-0.0627 0.204984,-0.0362 0.342443,-0.0362 0.301446,0 0.301446,0.29662 z"
           id="path8985" />
        <path
           d="m 72.231083,122.61263 h -0.552249 v -0.56913 h 0.552249 z m -0.0048,2.78536 H 71.68368 v -2.43569 h 0.542603 z"
           id="path8987" />
        <path
           d="m 74.261623,125.39799 h -0.55466 v -1.97508 l -0.518487,0.01 v 1.96543 h -0.552249 v -2.43569 h 0.552249 v 0.0892 q 0.192925,-0.0314 0.383439,-0.0603 0.236334,-0.0386 0.388262,-0.0386 0.301446,0 0.301446,0.29662 z"
           id="path8989" />
        <path
           d="m 76.27287,125.98641 q 0,0.30145 -0.311092,0.30145 h -0.959804 q -0.311092,0 -0.311092,-0.30145 v -0.39067 h 0.532956 v 0.2918 h 0.499195 v -0.50402 h -0.566718 q -0.231511,0 -0.36897,-0.13023 -0.135048,-0.13022 -0.135048,-0.35932 v -1.49035 q 0,-0.20981 0.118167,-0.33038 0.118167,-0.12058 0.325561,-0.12058 0.103698,0 0.627008,0.0989 v -0.0892 h 0.549837 z m -0.549837,-1.04662 v -1.49758 q -0.27733,-0.0289 -0.344854,-0.0289 -0.178456,0 -0.178456,0.17604 v 1.1672 q 0,0.18328 0.183279,0.18328 z"
           id="path8991" />
      </g>
      <g
         aria-label="PolyOsc"
         id="text23626"
         style="font-weight:bold;font-stretch:condensed;font-size:5.64444px;line-height:1.25;font-family:'Agency FB';-inkscape-font-specification:'Agency FB, Bold Condensed';fill:#e6e6e6;stroke-width:0.264583">
        <path
           d="m 58.1918,4.5603187 q 0,0.4023869 -0.394119,0.4023869 H 56.753129 V 6.5253997 H 56.108207 V 2.2121434 h 1.689474 q 0.394119,0 0.394119,0.3968747 z M 57.541366,4.4087346 V 2.7661143 h -0.788237 v 1.6426203 z"
           id="path8994" />
        <path
           d="m 60.45178,6.1808904 q 0,0.3445093 -0.350021,0.3445093 h -1.12999 q -0.355534,0 -0.355534,-0.3445093 V 4.0862739 q 0,-0.3445093 0.355534,-0.3445093 h 1.12999 q 0.350021,0 0.350021,0.3445093 z M 59.83442,6.0017456 V 4.2681748 h -0.598068 v 1.7335708 z"
           id="path8996" />
        <path
           d="M 61.543186,6.5253997 H 60.923069 V 2.2121434 h 0.620117 z"
           id="path8998" />
        <path
           d="m 63.896873,3.7417646 -0.697287,2.7478061 -0.267339,1.0528204 h -0.644921 l 0.289388,-1.03904 -0.705555,-2.7615865 h 0.647677 l 0.366558,1.8300334 0.366558,-1.8300334 z"
           id="path9000" />
        <path
           d="m 66.415925,6.1312811 q 0,0.3941186 -0.391363,0.3941186 h -1.400085 q -0.383095,0 -0.383095,-0.3941186 v -3.522263 q 0,-0.3968747 0.383095,-0.3968747 h 1.400085 q 0.391363,0 0.391363,0.3968747 z M 65.771003,5.9714287 V 2.7661143 h -0.884699 v 3.2053144 z"
           id="path9002" />
        <path
           d="m 68.651102,6.1808904 q 0,0.3445093 -0.350022,0.3445093 h -1.061088 q -0.350022,0 -0.350022,-0.3445093 V 5.5828223 h 0.60358 v 0.4685326 h 0.553971 V 5.610383 L 67.080139,5.0398756 Q 66.88997,4.9268766 66.88997,4.7367075 V 4.0862739 q 0,-0.3445093 0.355534,-0.3445093 h 1.050064 q 0.350022,0 0.350022,0.3445093 V 4.645757 H 68.047521 V 4.2158094 H 67.49355 v 0.4023869 l 0.964626,0.5649952 q 0.192926,0.110243 0.192926,0.3086803 z"
           id="path9004" />
        <path
           d="m 70.89179,6.1808904 q 0,0.3445093 -0.350021,0.3445093 h -1.094162 q -0.355533,0 -0.355533,-0.3445093 V 4.0862739 q 0,-0.3445093 0.355533,-0.3445093 h 1.094162 q 0.350021,0 0.350021,0.3445093 V 4.7477318 H 70.277186 V 4.2681748 H 69.71219 v 1.7335708 h 0.564996 V 5.4698232 h 0.614604 z"
           id="path9006" />
      </g>
    </g>
    <rect
       style="fill:#cccccc;stroke:none;stroke-width:0.634713;stroke-linecap:round;stroke-linejoin:round;paint-order:fill markers stroke"
       id="rect1586"
       width="53.318302"
       height="37.886688"
       x="6.7489557"
       y="81.743057"
       ry="7.8930612" />
    <text
       xml:space="preserve"
       style="font-style:normal;font-variant:normal;font-weight:normal;font-stretch:normal;font-size:4.93889px;line-height:1.25;font-family:'Agency FB';-inkscape-font-specification:'Agency FB, Normal';font-variant-ligatures:normal;font-variant-caps:normal;font-variant-numeric:normal;font-variant-east-asian:normal;fill:#1a1a1a;fill-opacity:1;stroke:none;stroke-width:0.264583"
       x="29.171972"
       y="87.324669"
       id="text5347"><tspan
         sodipodi:role="line"
         id="tspan5345"
         style="font-style:normal;font-variant:normal;font-weight:normal;font-stretch:normal;font-size:4.93889px;font-family:'Agency FB';-inkscape-font-specification:'Agency FB, Normal';font-variant-ligatures:normal;font-variant-caps:normal;font-variant-numeric:normal;font-variant-east-asian:normal;fill:#1a1a1a;stroke-width:0.264583"
         x="29.171972"
         y="87.324669">V/Oct</tspan></text>
    <text
       xml:space="preserve"
       style="font-style:normal;font-variant:normal;font-weight:normal;font-stretch:normal;font-size:4.93889px;line-height:1.25;font-family:'Agency FB';-inkscape-font-specification:'Agency FB, Normal';font-variant-ligatures:normal;font-variant-caps:normal;font-variant-numeric:normal;font-variant-east-asian:normal;fill:#1a1a1a;fill-opacity:1;stroke:none;stroke-width:0.264583"
       x="30.288528"
       y="106.5058"
       id="text6779"><tspan
         sodipodi:role="line"
         id="tspan6777"
         style="font-style:normal;font-variant:normal;font-weight:normal;font-stretch:normal;font-size:4.93889px;font-family:'Agency FB';-inkscape-font-specification:'Agency FB, Normal';font-variant-ligatures:normal;font-variant-caps:normal;font-variant-numeric:normal;font-variant-east-asian:normal;fill:#1a1a1a;stroke-width:0.264583"
         x="30.288528"
         y="106.5058">Gate</tspan></text>
    <g
       aria-label="Oct"
       id="text23098"
       style="font-size:3.52778px;line-height:1.25;font-family:Bahnschrift;-inkscape-font-specification:'Bahnschrift, Normal';fill:#e6e6e6;stroke-width:0.264583">
      <path
         d="m 12.294395,74.258245 q -0.261827,0 -0.461643,-0.113688 -0.199816,-0.115411 -0.310059,-0.32384 -0.10852,-0.210151 -0.10852,-0.485758 v -0.70969 q 0,-0.275608 0.10852,-0.484037 0.110243,-0.210151 0.310059,-0.323839 0.199816,-0.115411 0.461643,-0.115411 0.261828,0 0.461643,0.115411 0.199816,0.113688 0.308336,0.323839 0.110244,0.208429 0.110244,0.484037 v 0.70969 q 0,0.275607 -0.110244,0.485758 -0.10852,0.208429 -0.308336,0.32384 -0.199815,0.113688 -0.461643,0.113688 z m 0,-0.346232 q 0.15503,0 0.272163,-0.0689 0.118856,-0.07062 0.18259,-0.198094 0.06546,-0.129191 0.06546,-0.298 v -0.733806 q 0,-0.16881 -0.06546,-0.296279 -0.06373,-0.129191 -0.18259,-0.198093 -0.117133,-0.07062 -0.272163,-0.07062 -0.155029,0 -0.273885,0.07062 -0.117133,0.0689 -0.18259,0.198093 -0.06374,0.127469 -0.06374,0.296279 v 0.733806 q 0,0.168809 0.06374,0.298 0.06546,0.127469 0.18259,0.198094 0.118856,0.0689 0.273885,0.0689 z"
         id="path8669" />
      <path
         d="m 14.430356,74.258245 q -0.244602,0 -0.41858,-0.0913 -0.172255,-0.0913 -0.26355,-0.265273 -0.0913,-0.173977 -0.0913,-0.420302 v -0.294556 q 0,-0.242879 0.0913,-0.415134 0.09129,-0.172255 0.26355,-0.261827 0.173978,-0.09129 0.41858,-0.09129 0.139526,0 0.261827,0.03445 0.124024,0.03273 0.222209,0.09646 0.09819,0.06374 0.163642,0.15503 v 0 l -0.253215,0.227376 v 0 q -0.07579,-0.08613 -0.177422,-0.132636 -0.101631,-0.04651 -0.211874,-0.04651 -0.20326,0 -0.315226,0.113688 -0.111966,0.113689 -0.111966,0.320394 v 0.294556 q 0,0.211874 0.110243,0.327285 0.111966,0.11541 0.316949,0.11541 0.111966,0 0.213596,-0.04995 0.101631,-0.04995 0.1757,-0.141249 v 0 l 0.253215,0.244602 v 0 q -0.06718,0.08957 -0.165365,0.153307 -0.09818,0.06201 -0.222208,0.09474 -0.122301,0.03273 -0.260105,0.03273 z"
         id="path8671" />
      <path
         d="m 15.930696,74.241019 q -0.217042,0 -0.318672,-0.118856 -0.09991,-0.120578 -0.09991,-0.354845 v -1.843127 h 0.3514 v 1.846573 q 0,0.06546 0.02584,0.10163 0.02584,0.03445 0.07579,0.03445 h 0.168809 v 0.334174 z m -0.602893,-1.796618 h 0.806153 v 0.316949 h -0.806153 z"
         id="path8673" />
    </g>
    <g
       aria-label="Semi"
       id="text25046"
       style="font-size:3.52778px;line-height:1.25;font-family:Bahnschrift;-inkscape-font-specification:'Bahnschrift, Normal';fill:#e6e6e6;stroke-width:0.264583">
      <path
         d="m 23.561678,74.258245 q -0.180868,0 -0.342787,-0.03445 -0.16192,-0.03445 -0.303169,-0.103353 -0.139527,-0.0689 -0.261827,-0.172255 v 0 l 0.218763,-0.268718 v 0 q 0.142972,0.124024 0.315227,0.186036 0.172255,0.06201 0.373793,0.06201 0.272162,0 0.422024,-0.09991 0.149862,-0.101631 0.149862,-0.285943 v -0.0017 q 0,-0.130914 -0.0689,-0.206706 -0.06718,-0.07752 -0.1757,-0.113688 -0.106798,-0.0379 -0.27733,-0.0689 -0.0052,-0.0017 -0.01206,-0.0017 -0.0052,0 -0.01034,-0.0017 l -0.02584,-0.0052 q -0.251492,-0.04306 -0.409966,-0.09646 -0.156752,-0.05512 -0.268718,-0.198093 -0.111966,-0.144694 -0.111966,-0.409966 v -0.0017 q 0,-0.232544 0.103353,-0.396186 0.105076,-0.165365 0.304891,-0.251492 0.199816,-0.08613 0.480592,-0.08613 0.134358,0 0.26355,0.02928 0.130913,0.02928 0.256659,0.08785 0.127469,0.05684 0.24977,0.144694 v 0 l -0.199816,0.279053 v 0 q -0.142971,-0.105076 -0.285943,-0.156752 -0.141249,-0.0534 -0.28422,-0.0534 -0.25666,0 -0.399632,0.103353 -0.141249,0.10163 -0.141249,0.289388 v 0.0017 q 0,0.129192 0.07235,0.203261 0.07407,0.07407 0.18259,0.110243 0.110244,0.03445 0.304892,0.07235 0.0069,0.0017 0.01206,0.0034 0.0069,0 0.01378,0.0017 0.0086,0.0017 0.01895,0.0034 0.01034,0.0017 0.01895,0.0034 0.227376,0.04651 0.378961,0.110243 0.153307,0.06373 0.254937,0.206706 0.103353,0.141249 0.103353,0.387574 v 0.0034 q 0,0.229099 -0.108521,0.392741 -0.10852,0.16192 -0.315226,0.248047 -0.204983,0.08441 -0.496094,0.08441 z"
         id="path8676" />
      <path
         d="m 25.67869,74.258245 q -0.248047,0 -0.423747,-0.09302 -0.1757,-0.09302 -0.268717,-0.272163 -0.09129,-0.180867 -0.09129,-0.435804 v -0.201539 q 0,-0.265272 0.08785,-0.45303 0.08957,-0.187758 0.258382,-0.285943 0.16881,-0.09819 0.406521,-0.09819 0.223932,0 0.382406,0.111965 0.158475,0.111966 0.241157,0.32384 0.08441,0.211873 0.08441,0.508151 v 0.117134 h -1.205784 v -0.282498 h 0.87161 v 0 q -0.0155,-0.218764 -0.113689,-0.339342 -0.09646,-0.122301 -0.260105,-0.122301 -0.199815,0 -0.310058,0.130913 -0.108521,0.130914 -0.108521,0.370348 v 0.227377 q 0,0.222209 0.117133,0.341065 0.117134,0.118855 0.332452,0.118855 0.106798,0 0.211874,-0.04306 0.105075,-0.04306 0.187758,-0.120579 v 0 l 0.230821,0.230822 v 0 q -0.132636,0.127468 -0.298001,0.198093 -0.165364,0.0689 -0.332452,0.0689 z"
         id="path8678" />
      <path
         d="m 28.973926,73.148923 q 0,-0.18948 -0.09818,-0.292833 -0.09819,-0.103353 -0.275608,-0.103353 -0.163642,0 -0.253214,0.09991 -0.08957,0.09991 -0.08957,0.282498 l -0.07062,-0.34451 q 0.08441,-0.177422 0.222209,-0.273885 0.139527,-0.09819 0.306614,-0.09819 0.192925,0 0.329007,0.08613 0.137804,0.08441 0.208428,0.248047 0.07235,0.163642 0.07235,0.394464 v 1.085206 h -0.3514 z m -2.13596,-0.704522 h 0.3514 v 1.788006 h -0.3514 z m 1.06798,0.704522 q 0,-0.18948 -0.09302,-0.292833 -0.09302,-0.103353 -0.26355,-0.103353 -0.172254,0 -0.266995,0.0913 -0.09302,0.0913 -0.09302,0.25666 l -0.03617,-0.34451 q 0.08268,-0.161919 0.215319,-0.249769 0.134359,-0.08785 0.296278,-0.08785 0.187758,0 0.320394,0.08613 0.132637,0.08441 0.201538,0.248047 0.07062,0.163642 0.07062,0.394464 v 1.085206 h -0.3514 z"
         id="path8680" />
      <path
         d="m 29.859317,71.727821 h 0.3514 v 0.3514 h -0.3514 z m 0,0.71658 h 0.3514 v 1.788006 h -0.3514 z"
         id="path8682" />
    </g>
    <g
       aria-label="Fine"
       id="text30274"
       style="font-size:3.52778px;line-height:1.25;font-family:Bahnschrift;-inkscape-font-specification:'Bahnschrift, Normal';fill:#e6e6e6;stroke-width:0.264583">
      <path
         d="m 36.884129,71.727821 h 0.3514 v 2.504586 h -0.3514 z m 0.172255,1.116211 h 1.214397 v 0.334175 h -1.214397 z m 0,-1.116211 h 1.403877 v 0.334174 h -1.403877 z"
         id="path8685" />
      <path
         d="m 38.873673,71.727821 h 0.3514 v 0.3514 h -0.3514 z m 0,0.71658 h 0.3514 v 1.788006 h -0.3514 z"
         id="path8687" />
      <path
         d="m 39.759063,72.444401 h 0.3514 v 1.788006 h -0.3514 z m 1.085206,0.704522 q 0,-0.18948 -0.09819,-0.292833 -0.09819,-0.103353 -0.275608,-0.103353 -0.172254,0 -0.266995,0.0913 -0.09302,0.0913 -0.09302,0.25666 l -0.03617,-0.34451 q 0.08268,-0.161919 0.215319,-0.249769 0.134359,-0.08785 0.296278,-0.08785 0.291111,0 0.449585,0.191203 0.160198,0.18948 0.160198,0.537435 v 1.085206 h -0.3514 z"
         id="path8689" />
      <path
         d="m 42.461742,74.258245 q -0.248047,0 -0.423747,-0.09302 -0.1757,-0.09302 -0.268718,-0.272163 -0.0913,-0.180867 -0.0913,-0.435804 v -0.201539 q 0,-0.265272 0.08785,-0.45303 0.08957,-0.187758 0.258383,-0.285943 0.168809,-0.09819 0.406521,-0.09819 0.223932,0 0.382406,0.111965 0.158475,0.111966 0.241157,0.32384 0.0844,0.211873 0.0844,0.508151 v 0.117134 H 41.93292 v -0.282498 h 0.871609 v 0 q -0.0155,-0.218764 -0.113688,-0.339342 -0.09646,-0.122301 -0.260105,-0.122301 -0.199815,0 -0.310059,0.130913 -0.10852,0.130914 -0.10852,0.370348 v 0.227377 q 0,0.222209 0.117133,0.341065 0.117133,0.118855 0.332452,0.118855 0.106798,0 0.211874,-0.04306 0.105075,-0.04306 0.187757,-0.120579 v 0 l 0.230822,0.230822 v 0 q -0.132636,0.127468 -0.298001,0.198093 -0.165365,0.0689 -0.332452,0.0689 z"
         id="path8691" />
    </g>
    <g
       aria-label="Wave"
       id="text31676"
       style="font-size:3.52778px;line-height:1.25;font-family:Bahnschrift;-inkscape-font-specification:'Bahnschrift, Normal';fill:#e6e6e6;stroke-width:0.264583">
      <path
         d="m 51.186535,71.727821 h 0.241157 l 0.513319,1.963705 0.442695,-1.963705 h 0.365181 l -0.611505,2.504586 h -0.35829 l -0.461643,-1.75011 -0.482314,1.75011 h -0.35829 L 49.86534,71.727821 h 0.36518 l 0.442695,1.963705 z"
         id="path8694" />
      <path
         d="m 53.999457,73.098969 q 0,-0.1757 -0.09474,-0.272162 -0.09302,-0.09819 -0.265272,-0.09819 -0.106798,0 -0.210151,0.03273 -0.101631,0.03273 -0.180868,0.0913 l -0.25666,-0.1757 q 0.101631,-0.122301 0.266995,-0.18948 0.167087,-0.0689 0.370348,-0.0689 0.222209,0 0.380684,0.07924 0.158474,0.07752 0.241156,0.227376 0.08268,0.14814 0.08268,0.358291 v 1.14894 h -0.334175 z m -0.437527,1.159276 q -0.33073,0 -0.494372,-0.136082 -0.163642,-0.137803 -0.163642,-0.416856 0,-0.265273 0.149862,-0.397909 0.149862,-0.132636 0.45303,-0.132636 h 0.508152 l 0.02412,0.282498 h -0.530545 q -0.137804,0 -0.206706,0.06201 -0.06718,0.06029 -0.06718,0.186036 0,0.136081 0.08957,0.201538 0.09129,0.06546 0.275608,0.06546 0.201538,0 0.299723,-0.04306 0.09991,-0.04306 0.09991,-0.134359 l 0.03617,0.251492 q -0.04651,0.07235 -0.115411,0.118856 -0.06718,0.04651 -0.156752,0.0689 -0.08957,0.02412 -0.201538,0.02412 z"
         id="path8696" />
      <path
         d="m 55.868423,72.444401 h 0.366903 l -0.671794,1.788006 h -0.265273 l -0.671794,-1.788006 h 0.366903 l 0.437527,1.276409 z"
         id="path8698" />
      <path
         d="m 57.277467,74.258245 q -0.248047,0 -0.423747,-0.09302 -0.1757,-0.09302 -0.268717,-0.272163 -0.0913,-0.180867 -0.0913,-0.435804 v -0.201539 q 0,-0.265272 0.08785,-0.45303 0.08957,-0.187758 0.258382,-0.285943 0.16881,-0.09819 0.406522,-0.09819 0.223931,0 0.382405,0.111965 0.158475,0.111966 0.241157,0.32384 0.0844,0.211873 0.0844,0.508151 v 0.117134 h -1.205784 v -0.282498 h 0.87161 v 0 q -0.0155,-0.218764 -0.113689,-0.339342 -0.09646,-0.122301 -0.260104,-0.122301 -0.199816,0 -0.310059,0.130913 -0.108521,0.130914 -0.108521,0.370348 v 0.227377 q 0,0.222209 0.117133,0.341065 0.117134,0.118855 0.332452,0.118855 0.106798,0 0.211874,-0.04306 0.105075,-0.04306 0.187758,-0.120579 v 0 l 0.230821,0.230822 v 0 q -0.132636,0.127468 -0.298001,0.198093 -0.165364,0.0689 -0.332452,0.0689 z"
         id="path8700" />
    </g>
    <g
       aria-label="1"
       id="text2804"
       style="font-size:3.52778px;line-height:1.25;font-family:Bahnschrift;-inkscape-font-specification:'Bahnschrift, Normal';fill:#e6e6e6;stroke-width:0.264583">
      <path
         d="m 5.1855492,65.116837 h -0.3514 V 62.994656 L 4.4775816,63.21342 v -0.363458 l 0.3565676,-0.237711 h 0.3514 z"
         id="path8767" />
    </g>
    <g
       aria-label="2"
       id="text13484"
       style="font-size:3.52778px;line-height:1.25;font-family:Bahnschrift;-inkscape-font-specification:'Bahnschrift, Normal';fill:#e6e6e6;stroke-width:0.264583">
      <path
         d="m 4.5430394,49.766684 0.8733323,-1.164443 q 0.075792,-0.09991 0.1171333,-0.206706 0.043064,-0.10852 0.043064,-0.201538 v -0.0034 q 0,-0.149862 -0.08785,-0.232544 -0.08785,-0.08268 -0.2497696,-0.08268 -0.1533068,0 -0.248047,0.0913 -0.09474,0.08957 -0.1154108,0.254938 v 0.0017 H 4.5120335 v -0.0017 q 0.031006,-0.215319 0.1257461,-0.366903 0.096463,-0.153307 0.248047,-0.232544 0.1515843,-0.08096 0.3496775,-0.08096 0.2239313,0 0.3824058,0.07751 0.1584745,0.07579 0.2411568,0.222208 0.082682,0.146417 0.082682,0.353123 v 0.0017 q 0,0.132637 -0.055122,0.277331 -0.055122,0.144694 -0.1533068,0.279053 l -0.7251931,0.985298 h 0.9474019 v 0.334174 H 4.5430394 Z"
         id="path8770" />
    </g>
    <g
       aria-label="3"
       id="text15796"
       style="font-size:3.52778px;line-height:1.25;font-family:Bahnschrift;-inkscape-font-specification:'Bahnschrift, Normal';fill:#e6e6e6;stroke-width:0.264583">
      <path
         d="m 5.2286139,35.026307 q -0.210151,0 -0.370348,-0.07579 Q 4.6980688,34.873001 4.5998835,34.728306 4.5034208,34.58189 4.4775826,34.376907 v 0 h 0.3582901 v 0 q 0.015503,0.106798 0.067179,0.1757 0.051677,0.0689 0.1326363,0.103352 0.082682,0.03273 0.1929255,0.03273 0.1739774,0 0.2704401,-0.09302 0.096463,-0.09302 0.096463,-0.261827 v -0.07579 q 0,-0.187758 -0.091295,-0.289389 Q 5.4129266,33.86531 5.2458393,33.86531 H 5.0684168 v -0.334175 h 0.1774225 q 0.1464167,0 0.2273765,-0.08785 0.08096,-0.08785 0.08096,-0.248047 v -0.07752 q 0,-0.148139 -0.086127,-0.229099 -0.084405,-0.08096 -0.2411568,-0.08096 -0.089573,0 -0.160197,0.03445 -0.070625,0.03273 -0.1205785,0.103353 -0.048231,0.0689 -0.070625,0.173978 v 0 H 4.5189237 v 0 q 0.034451,-0.204983 0.1291912,-0.3514 0.096463,-0.146417 0.2428794,-0.222209 0.1464166,-0.07579 0.335897,-0.07579 0.3238392,0 0.5012617,0.170532 0.1774226,0.170533 0.1774226,0.480591 v 0.04134 q 0,0.187757 -0.1016304,0.327284 -0.1016304,0.139526 -0.2876657,0.203261 0.2049833,0.04479 0.316949,0.201538 0.1136882,0.156752 0.1136882,0.399631 v 0.04134 q 0,0.218764 -0.084405,0.373793 -0.084405,0.15503 -0.2463245,0.23599 -0.160197,0.08096 -0.3875734,0.08096 z"
         id="path8773" />
    </g>
    <g
       aria-label="4"
       id="text13488"
       style="font-size:3.52778px;line-height:1.25;font-family:Bahnschrift;-inkscape-font-specification:'Bahnschrift, Normal';fill:#e6e6e6;stroke-width:0.264583">
      <path
         d="m 4.5464845,19.251536 0.8406039,-1.813844 h 0.3617352 l -0.8199332,1.793173 h 1.2281773 v 0.325562 H 4.5464845 Z m 1.0800381,-0.78376 h 0.3427873 v 1.474502 H 5.6265226 Z"
         id="path8776" />
    </g>
    <g
       aria-label="Oscillators"
       id="text75437"
       style="font-size:4.93889px;line-height:1.25;font-family:'Agency FB';-inkscape-font-specification:'Agency FB, Normal';fill:#e6e6e6;stroke-width:0.264583">
      <path
         d="m 26.680482,12.099105 q 0,0.118167 -0.07717,0.192925 -0.07476,0.07476 -0.192925,0.07476 H 25.35412 q -0.118167,0 -0.192925,-0.07476 -0.07476,-0.07476 -0.07476,-0.192925 V 8.8603699 q 0,-0.1181668 0.07476,-0.1929254 0.07476,-0.074759 0.192925,-0.074759 h 1.056267 q 0.118167,0 0.192925,0.074759 0.07717,0.074759 0.07717,0.1929254 z m -0.335208,-0.02894 V 8.8893087 h -0.92363 v 3.1808573 z"
         id="path8744" />
      <path
         d="m 28.50845,12.094282 q 0,0.272507 -0.272507,0.272507 h -0.735528 q -0.272507,0 -0.272507,-0.272507 v -0.532957 h 0.315915 v 0.528134 h 0.648712 v -0.467844 l -0.839226,-0.687297 q -0.120578,-0.09646 -0.120578,-0.250803 v -0.390674 q 0,-0.272507 0.272507,-0.272507 h 0.725882 q 0.272507,0 0.272507,0.272507 v 0.467844 h -0.311092 v -0.463021 h -0.648712 v 0.409967 l 0.84646,0.687296 q 0.118167,0.09405 0.118167,0.255626 z"
         id="path8746" />
      <path
         d="m 30.319538,12.094282 q 0,0.272507 -0.270096,0.272507 h -0.762055 q -0.270096,0 -0.270096,-0.272507 v -1.801441 q 0,-0.272507 0.270096,-0.272507 h 0.762055 q 0.270096,0 0.270096,0.272507 v 0.467844 H 30.003622 V 10.302487 H 29.33803 v 1.782148 h 0.665592 v -0.52331 h 0.315916 z"
         id="path8748" />
      <path
         d="M 31.180467,9.50667 H 30.854905 V 9.1015266 h 0.325562 z m -0.0048,2.860119 h -0.315915 v -2.346455 h 0.315915 z"
         id="path8750" />
      <path
         d="M 32.055866,12.366789 H 31.73995 V 8.5926859 h 0.315916 z"
         id="path8752" />
      <path
         d="M 32.936088,12.366789 H 32.620173 V 8.5926859 h 0.315915 z"
         id="path8754" />
      <path
         d="m 34.807465,12.366789 h -0.315916 v -0.06511 q -0.190514,0.02653 -0.381027,0.05064 -0.236334,0.02894 -0.378616,0.02894 -0.262861,0 -0.262861,-0.260449 v -0.856106 q 0,-0.270096 0.272507,-0.270096 h 0.75482 v -0.706589 h -0.689708 v 0.40032 h -0.311092 v -0.395497 q 0,-0.272507 0.270095,-0.272507 h 0.771702 q 0.270096,0 0.270096,0.272507 z m -0.311093,-0.2918 V 11.24541 h -0.716235 v 0.844049 z"
         id="path8756" />
      <path
         d="m 36.177234,12.366789 h -0.455786 q -0.270095,0 -0.270095,-0.272507 v -1.791795 h -0.282154 v -0.282153 h 0.282154 V 9.2896289 h 0.315915 v 0.7307051 h 0.409966 v 0.282153 h -0.409966 v 1.782148 h 0.409966 z"
         id="path8758" />
      <path
         d="m 37.935267,12.094282 q 0,0.272507 -0.272507,0.272507 h -0.805464 q -0.270095,0 -0.270095,-0.272507 v -1.801441 q 0,-0.272507 0.270095,-0.272507 h 0.805464 q 0.272507,0 0.272507,0.272507 z m -0.320739,-0.0096 v -1.782148 h -0.706589 v 1.782148 z"
         id="path8760" />
      <path
         d="M 39.686065,10.792035 H 39.37015 V 10.30731 l -0.590834,0.01929 v 2.040186 h -0.320738 v -2.346455 h 0.320738 v 0.06511 q 0.159164,-0.02412 0.320739,-0.05064 0.192925,-0.02894 0.320738,-0.02894 0.265272,0 0.265272,0.262861 z"
         id="path8762" />
      <path
         d="m 41.357281,12.094282 q 0,0.272507 -0.272507,0.272507 h -0.735528 q -0.272507,0 -0.272507,-0.272507 v -0.532957 h 0.315915 v 0.528134 h 0.648712 V 11.621615 L 40.20214,10.934318 q -0.120578,-0.09646 -0.120578,-0.250803 v -0.390674 q 0,-0.272507 0.272507,-0.272507 h 0.725882 q 0.272507,0 0.272507,0.272507 v 0.467844 h -0.311092 v -0.463021 h -0.648712 v 0.409967 l 0.84646,0.687296 q 0.118167,0.09405 0.118167,0.255626 z"
         id="path8764" />
    </g>
    <g
       aria-label="1"
       id="text85019"
       style="font-size:3.52778px;line-height:1.25;font-family:Bahnschrift;-inkscape-font-specification:'Bahnschrift, Normal';fill:#e6e6e6;stroke-width:0.264583">
      <path
         d="m 69.038549,65.116837 h -0.3514 v -2.122181 l -0.356567,0.218764 v -0.363458 l 0.356567,-0.237711 h 0.3514 z"
         id="path8715" />
    </g>
    <g
       aria-label="2"
       id="text85033"
       style="font-size:3.52778px;line-height:1.25;font-family:Bahnschrift;-inkscape-font-specification:'Bahnschrift, Normal';fill:#e6e6e6;stroke-width:0.264583">
      <path
         d="m 68.396039,49.766684 0.873332,-1.164443 q 0.07579,-0.09991 0.117133,-0.206706 0.04306,-0.10852 0.04306,-0.201538 v -0.0034 q 0,-0.149862 -0.08785,-0.232544 -0.08785,-0.08268 -0.24977,-0.08268 -0.153306,0 -0.248047,0.0913 -0.09474,0.08957 -0.11541,0.254938 v 0.0017 h -0.363458 v -0.0017 q 0.03101,-0.215319 0.125746,-0.366903 0.09646,-0.153307 0.248047,-0.232544 0.151584,-0.08096 0.349677,-0.08096 0.223932,0 0.382406,0.07751 0.158475,0.07579 0.241157,0.222208 0.08268,0.146417 0.08268,0.353123 v 0.0017 q 0,0.132637 -0.05512,0.277331 -0.05512,0.144694 -0.153307,0.279053 l -0.725193,0.985298 h 0.947402 v 0.334174 h -1.41249 z"
         id="path8718" />
    </g>
    <g
       aria-label="3"
       id="text85047"
       style="font-size:3.52778px;line-height:1.25;font-family:Bahnschrift;-inkscape-font-specification:'Bahnschrift, Normal';fill:#e6e6e6;stroke-width:0.264583">
      <path
         d="m 69.081613,35.026307 q -0.210151,0 -0.370348,-0.07579 -0.160197,-0.07751 -0.258382,-0.222209 -0.09646,-0.146416 -0.122301,-0.351399 v 0 h 0.35829 v 0 q 0.0155,0.106798 0.06718,0.1757 0.05168,0.0689 0.132637,0.103352 0.08268,0.03273 0.192925,0.03273 0.173978,0 0.27044,-0.09302 0.09646,-0.09302 0.09646,-0.261827 v -0.07579 q 0,-0.187758 -0.0913,-0.289389 -0.0913,-0.103352 -0.258382,-0.103352 h -0.177423 v -0.334175 h 0.177423 q 0.146416,0 0.227376,-0.08785 0.08096,-0.08785 0.08096,-0.248047 v -0.07752 q 0,-0.148139 -0.08613,-0.229099 -0.0844,-0.08096 -0.241156,-0.08096 -0.08957,0 -0.160198,0.03445 -0.07062,0.03273 -0.120578,0.103353 -0.04823,0.0689 -0.07062,0.173978 v 0 h -0.356568 v 0 q 0.03445,-0.204983 0.129191,-0.3514 0.09646,-0.146417 0.242879,-0.222209 0.146417,-0.07579 0.335898,-0.07579 0.323839,0 0.501261,0.170532 0.177423,0.170533 0.177423,0.480591 v 0.04134 q 0,0.187757 -0.101631,0.327284 -0.10163,0.139526 -0.287665,0.203261 0.204983,0.04479 0.316949,0.201538 0.113688,0.156752 0.113688,0.399631 v 0.04134 q 0,0.218764 -0.0844,0.373793 -0.08441,0.15503 -0.246324,0.23599 -0.160197,0.08096 -0.387574,0.08096 z"
         id="path8721" />
    </g>
    <g
       aria-label="4"
       id="text85061"
       style="font-size:3.52778px;line-height:1.25;font-family:Bahnschrift;-inkscape-font-specification:'Bahnschrift, Normal';fill:#e6e6e6;stroke-width:0.264583">
      <path
         d="m 68.399484,19.251536 0.840604,-1.813844 h 0.361735 l -0.819933,1.793173 h 1.228177 v 0.325562 h -1.610583 z m 1.080038,-0.78376 h 0.342787 v 1.474502 h -0.342787 z"
         id="path8724" />
    </g>
    <g
       aria-label="FM Matrix"
       id="text85075"
       style="font-size:4.93889px;line-height:1.25;font-family:'Agency FB';-inkscape-font-specification:'Agency FB, Normal';fill:#e6e6e6;stroke-width:0.264583">
      <path
         d="M 90.154869,8.8893087 H 89.274647 V 10.32178 h 0.810286 v 0.301446 h -0.810286 v 1.743563 H 88.939439 V 8.5926859 h 1.21543 z"
         id="path8727" />
      <path
         d="M 92.484443,12.366789 H 92.168528 V 9.9769256 q 0,-0.050643 0.03376,-0.2966228 l -0.617361,2.3319852 h -0.06752 L 90.900043,9.6803028 q 0.03376,0.2483914 0.03376,0.2966228 V 12.366789 H 90.61789 V 8.5926859 h 0.311092 l 0.612538,2.4549761 q 0.0048,0.01929 0.0096,0.10852 0,-0.03617 0.0096,-0.10852 l 0.612538,-2.4549761 h 0.311092 z"
         id="path8729" />
      <path
         d="M 95.920926,12.366789 H 95.605011 V 9.9769256 q 0,-0.050643 0.03376,-0.2966228 l -0.617361,2.3319852 h -0.06752 L 94.336527,9.6803028 q 0.03376,0.2483914 0.03376,0.2966228 V 12.366789 H 94.054373 V 8.5926859 h 0.311092 l 0.612539,2.4549761 q 0.0048,0.01929 0.0096,0.10852 0,-0.03617 0.0096,-0.10852 l 0.612538,-2.4549761 h 0.311092 z"
         id="path8731" />
      <path
         d="M 97.811595,12.366789 H 97.49568 v -0.06511 q -0.190514,0.02653 -0.381028,0.05064 -0.236334,0.02894 -0.378616,0.02894 -0.262861,0 -0.262861,-0.260449 v -0.856106 q 0,-0.270096 0.272507,-0.270096 h 0.754821 v -0.706589 h -0.689709 v 0.40032 h -0.311092 v -0.395497 q 0,-0.272507 0.270096,-0.272507 h 0.771701 q 0.270096,0 0.270096,0.272507 z m -0.311092,-0.2918 V 11.24541 h -0.716236 v 0.844049 z"
         id="path8733" />
      <path
         d="m 99.181366,12.366789 h -0.455787 q -0.270095,0 -0.270095,-0.272507 V 10.302487 H 98.17333 v -0.282153 h 0.282154 V 9.2896289 h 0.315915 v 0.7307051 h 0.409967 v 0.282153 h -0.409967 v 1.782148 h 0.409967 z"
         id="path8735" />
      <path
         d="M 100.81882,10.792035 H 100.5029 V 10.30731 l -0.59083,0.01929 v 2.040186 h -0.320738 v -2.346455 h 0.320738 v 0.06511 q 0.15916,-0.02412 0.32074,-0.05064 0.19292,-0.02894 0.32074,-0.02894 0.26527,0 0.26527,0.262861 z"
         id="path8737" />
      <path
         d="m 101.56641,9.50667 h -0.32557 V 9.1015266 h 0.32557 z m -0.005,2.860119 h -0.31591 v -2.346455 h 0.31591 z"
         id="path8739" />
      <path
         d="m 103.3799,12.366789 h -0.32556 l -0.39549,-0.928454 -0.40032,0.928454 h -0.31592 v -0.0096 l 0.54743,-1.196138 -0.51367,-1.140671 h 0.32556 l 0.36174,0.860929 0.37138,-0.860929 h 0.31109 v 0.0096 l -0.51366,1.121379 z"
         id="path8741" />
    </g>
    <g
       aria-label="1"
       id="text87359"
       style="font-size:3.52778px;line-height:1.25;font-family:Bahnschrift;-inkscape-font-specification:'Bahnschrift, Normal';fill:#e6e6e6;stroke-width:0.264583">
      <path
         d="m 77.981047,74.232407 h -0.3514 v -2.122181 l -0.356568,0.218764 v -0.363458 l 0.356568,-0.237711 h 0.3514 z"
         id="path8703" />
    </g>
    <g
       aria-label="2"
       id="text920"
       style="font-size:3.52778px;line-height:1.25;font-family:Bahnschrift;-inkscape-font-specification:'Bahnschrift, Normal';fill:#e6e6e6;stroke-width:0.264583">
      <path
         d="m 89.594563,73.940432 0.873332,-1.164443 q 0.07579,-0.09991 0.117134,-0.206706 0.04306,-0.10852 0.04306,-0.201538 v -0.0034 q 0,-0.149862 -0.08785,-0.232544 -0.08785,-0.08268 -0.249769,-0.08268 -0.153307,0 -0.248047,0.09129 -0.09474,0.08957 -0.115411,0.254938 v 0.0017 h -0.363458 v -0.0017 q 0.03101,-0.215319 0.125746,-0.366903 0.09646,-0.153307 0.248047,-0.232544 0.151585,-0.08096 0.349678,-0.08096 0.223931,0 0.382406,0.07751 0.158474,0.07579 0.241156,0.222208 0.08268,0.146417 0.08268,0.353123 v 0.0017 q 0,0.132637 -0.05512,0.277331 -0.05512,0.144694 -0.153307,0.279053 l -0.725193,0.985298 h 0.947402 v 0.334174 h -1.41249 z"
         id="path8706" />
    </g>
    <g
       aria-label="3"
       id="text1090"
       style="font-size:3.52778px;line-height:1.25;font-family:Bahnschrift;-inkscape-font-specification:'Bahnschrift, Normal';fill:#e6e6e6;stroke-width:0.264583">
      <path
         d="m 103.88078,74.271161 q -0.21015,0 -0.37035,-0.07579 -0.1602,-0.07751 -0.25838,-0.222209 -0.0965,-0.146416 -0.1223,-0.3514 v 0 h 0.35829 v 0 q 0.0155,0.106799 0.0672,0.1757 0.0517,0.0689 0.13263,0.103353 0.0827,0.03273 0.19293,0.03273 0.17397,0 0.27044,-0.09302 0.0965,-0.09302 0.0965,-0.261827 v -0.07579 q 0,-0.187758 -0.0913,-0.289389 -0.0913,-0.103353 -0.25838,-0.103353 h -0.17742 v -0.334174 h 0.17742 q 0.14642,0 0.22738,-0.08785 0.081,-0.08785 0.081,-0.248047 v -0.07752 q 0,-0.148139 -0.0861,-0.229099 -0.0844,-0.08096 -0.24116,-0.08096 -0.0896,0 -0.16019,0.03445 -0.0706,0.03273 -0.12058,0.103353 -0.0482,0.0689 -0.0706,0.173978 v 0 h -0.35656 v 0 q 0.0344,-0.204983 0.12919,-0.3514 0.0965,-0.146417 0.24288,-0.222209 0.14641,-0.07579 0.33589,-0.07579 0.32384,0 0.50127,0.170532 0.17742,0.170533 0.17742,0.480591 v 0.04134 q 0,0.187757 -0.10163,0.327284 -0.10163,0.139526 -0.28767,0.203261 0.20499,0.04479 0.31695,0.201538 0.11369,0.156752 0.11369,0.399631 v 0.04134 q 0,0.218764 -0.0844,0.373793 -0.0844,0.15503 -0.24632,0.23599 -0.1602,0.08096 -0.38757,0.08096 z"
         id="path8709" />
    </g>
    <g
       aria-label="4"
       id="text1180"
       style="font-size:3.52778px;line-height:1.25;font-family:Bahnschrift;-inkscape-font-specification:'Bahnschrift, Normal';fill:#e6e6e6;stroke-width:0.264583">
      <path
         d="m 116.95758,73.554587 0.84061,-1.813844 h 0.36173 l -0.81993,1.793173 h 1.22817 v 0.325562 h -1.61058 z m 1.08004,-0.78376 h 0.34279 v 1.474502 h -0.34279 z"
         id="path8712" />
    </g>
    <g
       aria-label="1"
       id="text2391"
       style="font-size:3.52778px;line-height:1.25;font-family:Bahnschrift;-inkscape-font-specification:'Bahnschrift, Normal';fill:#1a1a1a;stroke-width:0.264583">
      <path
         d="m 13.902397,97.704063 h -0.3514 v -2.12218 l -0.356568,0.218764 v -0.363458 l 0.356568,-0.237712 h 0.3514 z"
         id="path8788" />
    </g>
    <g
       aria-label="2"
       id="text2395"
       style="font-size:3.52778px;line-height:1.25;font-family:Bahnschrift;-inkscape-font-specification:'Bahnschrift, Normal';fill:#1a1a1a;stroke-width:0.264583">
      <path
         d="m 25.515914,97.412089 0.873332,-1.164443 q 0.07579,-0.09991 0.117133,-0.206706 0.04306,-0.108521 0.04306,-0.201538 v -0.0034 q 0,-0.149862 -0.08785,-0.232544 -0.08785,-0.08268 -0.24977,-0.08268 -0.153307,0 -0.248047,0.0913 -0.09474,0.08957 -0.11541,0.254938 v 0.0017 h -0.363458 v -0.0017 q 0.03101,-0.215319 0.125746,-0.366903 0.09646,-0.153307 0.248047,-0.232544 0.151584,-0.08096 0.349677,-0.08096 0.223932,0 0.382406,0.07751 0.158475,0.07579 0.241157,0.222209 0.08268,0.146417 0.08268,0.353123 v 0.0017 q 0,0.132637 -0.05512,0.277331 -0.05512,0.144694 -0.153307,0.279053 l -0.725193,0.985298 h 0.947402 v 0.334174 h -1.41249 z"
         id="path8785" />
    </g>
    <g
       aria-label="3"
       id="text2399"
       style="font-size:3.52778px;line-height:1.25;font-family:Bahnschrift;-inkscape-font-specification:'Bahnschrift, Normal';fill:#1a1a1a;stroke-width:0.264583">
      <path
         d="m 39.802129,97.729902 q -0.210151,0 -0.370348,-0.07579 -0.160197,-0.07751 -0.258382,-0.222208 -0.09646,-0.146417 -0.122301,-0.3514 v 0 h 0.35829 v 0 q 0.0155,0.106798 0.06718,0.1757 0.05168,0.0689 0.132636,0.103353 0.08268,0.03273 0.192925,0.03273 0.173978,0 0.27044,-0.09302 0.09646,-0.09302 0.09646,-0.261827 v -0.07579 q 0,-0.187758 -0.0913,-0.289388 -0.0913,-0.103353 -0.258382,-0.103353 h -0.177423 v -0.334175 h 0.177423 q 0.146416,0 0.227376,-0.08785 0.08096,-0.08785 0.08096,-0.248047 v -0.07751 q 0,-0.14814 -0.08613,-0.229099 -0.08441,-0.08096 -0.241157,-0.08096 -0.08957,0 -0.160197,0.03445 -0.07063,0.03273 -0.120579,0.103353 -0.04823,0.0689 -0.07062,0.173977 v 0 h -0.356568 v 0 q 0.03445,-0.204983 0.129191,-0.3514 0.09646,-0.146417 0.24288,-0.222209 0.146416,-0.07579 0.335897,-0.07579 0.323839,0 0.501261,0.170532 0.177423,0.170533 0.177423,0.480592 v 0.04134 q 0,0.187758 -0.10163,0.327284 -0.101631,0.139527 -0.287666,0.203261 0.204983,0.04479 0.316949,0.201538 0.113688,0.156752 0.113688,0.399631 v 0.04134 q 0,0.218763 -0.0844,0.373793 -0.08441,0.155029 -0.246324,0.235989 -0.160197,0.08096 -0.387574,0.08096 z"
         id="path8782" />
    </g>
    <g
       aria-label="4"
       id="text2403"
       style="font-size:3.52778px;line-height:1.25;font-family:Bahnschrift;-inkscape-font-specification:'Bahnschrift, Normal';fill:#1a1a1a;stroke-width:0.264583">
      <path
         d="m 52.878934,97.01332 0.840604,-1.813844 h 0.361735 l -0.819933,1.793173 h 1.228177 v 0.325562 h -1.610583 z m 1.080038,-0.78376 h 0.342787 v 1.474502 h -0.342787 z"
         id="path8779" />
    </g>
    <g
       aria-label="1"
       id="text2643"
       style="font-size:3.52778px;line-height:1.25;font-family:Bahnschrift;-inkscape-font-specification:'Bahnschrift, Normal';fill:#e6e6e6;stroke-width:0.264583">
      <path
         d="m 70.409544,99.440651 h -0.3514 v -2.12218 l -0.356568,0.218763 v -0.363457 l 0.356568,-0.237712 h 0.3514 z"
         id="path8650" />
    </g>
    <g
       aria-label="2"
       id="text2647"
       style="font-size:3.52778px;line-height:1.25;font-family:Bahnschrift;-inkscape-font-specification:'Bahnschrift, Normal';fill:#e6e6e6;stroke-width:0.264583">
      <path
         d="m 82.047085,99.148676 0.873333,-1.164443 q 0.07579,-0.09991 0.117133,-0.206706 0.04306,-0.10852 0.04306,-0.201538 v -0.0034 q 0,-0.149862 -0.08785,-0.232544 -0.08785,-0.08268 -0.24977,-0.08268 -0.153307,0 -0.248047,0.0913 -0.09474,0.08957 -0.115411,0.254937 v 0.0017 h -0.363458 v -0.0017 q 0.03101,-0.215319 0.125747,-0.366903 0.09646,-0.153307 0.248047,-0.232544 0.151584,-0.08096 0.349677,-0.08096 0.223931,0 0.382406,0.07752 0.158474,0.07579 0.241157,0.222209 0.08268,0.146416 0.08268,0.353122 v 0.0017 q 0,0.132636 -0.05512,0.27733 -0.05512,0.144694 -0.153306,0.279053 l -0.725193,0.985298 h 0.947401 v 0.334175 h -1.41249 z"
         id="path8653" />
    </g>
    <g
       aria-label="3"
       id="text2651"
       style="font-size:3.52778px;line-height:1.25;font-family:Bahnschrift;-inkscape-font-specification:'Bahnschrift, Normal';fill:#e6e6e6;stroke-width:0.264583">
      <path
         d="m 95.436456,99.479406 q -0.210151,0 -0.370348,-0.07579 -0.160197,-0.07752 -0.258382,-0.222209 -0.09646,-0.146417 -0.122301,-0.3514 v 0 h 0.35829 v 0 q 0.0155,0.106798 0.06718,0.1757 0.05168,0.0689 0.132637,0.103353 0.08268,0.03273 0.192925,0.03273 0.173978,0 0.27044,-0.09302 0.09646,-0.09302 0.09646,-0.261828 v -0.07579 q 0,-0.187758 -0.0913,-0.289388 -0.0913,-0.103353 -0.258382,-0.103353 h -0.177423 v -0.334175 h 0.177423 q 0.146416,0 0.227376,-0.08785 0.08096,-0.08785 0.08096,-0.248047 v -0.07751 q 0,-0.14814 -0.08613,-0.229099 -0.0844,-0.08096 -0.241156,-0.08096 -0.08957,0 -0.160197,0.03445 -0.07062,0.03273 -0.120579,0.103353 -0.04823,0.0689 -0.07062,0.173977 v 0 h -0.356568 v 0 q 0.03445,-0.204983 0.129191,-0.3514 0.09646,-0.146416 0.24288,-0.222209 0.146416,-0.07579 0.335897,-0.07579 0.323839,0 0.501261,0.170533 0.177423,0.170532 0.177423,0.480591 v 0.04134 q 0,0.187758 -0.10163,0.327284 -0.101631,0.139527 -0.287666,0.203261 0.204983,0.04479 0.316949,0.201538 0.113688,0.156752 0.113688,0.399631 v 0.04134 q 0,0.218763 -0.08441,0.373793 -0.0844,0.155029 -0.246324,0.235989 -0.160197,0.08096 -0.387574,0.08096 z"
         id="path8656" />
    </g>
    <g
       aria-label="4"
       id="text2655"
       style="font-size:3.52778px;line-height:1.25;font-family:Bahnschrift;-inkscape-font-specification:'Bahnschrift, Normal';fill:#e6e6e6;stroke-width:0.264583">
      <path
         d="m 107.29704,98.762831 0.84061,-1.813844 h 0.36173 l -0.81993,1.793174 h 1.22818 v 0.325561 h -1.61059 z m 1.08004,-0.783759 h 0.34279 v 1.474501 h -0.34279 z"
         id="path8659" />
    </g>
    <g
       aria-label="Mix"
       id="text2703"
       style="font-size:3.52778px;line-height:1.25;font-family:Bahnschrift;-inkscape-font-specification:'Bahnschrift, Normal';fill:#e6e6e6;stroke-width:0.264583">
      <path
         d="m 120.06632,96.936065 h 0.32901 v 2.504586 h -0.34279 v -1.875856 l 0.0172,0.110243 -0.61668,1.417658 h -0.2446 l -0.61667,-1.383207 0.0172,-0.144694 v 1.875856 h -0.34279 v -2.504586 h 0.32901 l 0.73552,1.653647 z"
         id="path8662" />
      <path
         d="m 120.981,96.936065 h 0.3514 v 0.3514 h -0.3514 z m 0,0.71658 h 0.3514 v 1.788006 h -0.3514 z"
         id="path8664" />
      <path
         d="m 122.37971,98.627608 -0.65802,-0.974963 h 0.39102 l 0.51332,0.800985 0.67696,0.987021 h -0.38929 z m -0.0103,-0.173978 0.16881,0.32384 -0.45475,0.663181 h -0.3893 z m 0.12402,-0.167087 0.39102,-0.633898 h 0.39102 l -0.6339,0.964628 z"
         id="path8666" />
    </g>
    <g
       aria-label="1"
       id="text4675"
       style="font-size:3.52778px;line-height:1.25;font-family:Bahnschrift;-inkscape-font-specification:'Bahnschrift, Normal';fill:#e6e6e6;stroke-width:0.264583">
      <path
         d="m 70.409544,118.87418 h -0.3514 V 116.752 l -0.356568,0.21877 v -0.36346 l 0.356568,-0.23771 h 0.3514 z"
         id="path8631" />
    </g>
    <g
       aria-label="2"
       id="text4683"
       style="font-size:3.52778px;line-height:1.25;font-family:Bahnschrift;-inkscape-font-specification:'Bahnschrift, Normal';fill:#e6e6e6;stroke-width:0.264583">
      <path
         d="m 82.047085,118.5822 0.873333,-1.16444 q 0.07579,-0.0999 0.117133,-0.20671 0.04306,-0.10852 0.04306,-0.20154 v -0.003 q 0,-0.14986 -0.08785,-0.23254 -0.08785,-0.0827 -0.24977,-0.0827 -0.153307,0 -0.248047,0.0913 -0.09474,0.0896 -0.115411,0.25494 v 0.002 h -0.363458 v -0.002 q 0.03101,-0.21532 0.125747,-0.36691 0.09646,-0.1533 0.248047,-0.23254 0.151584,-0.081 0.349677,-0.081 0.223931,0 0.382406,0.0775 0.158474,0.0758 0.241157,0.22221 0.08268,0.14642 0.08268,0.35312 v 0.002 q 0,0.13263 -0.05512,0.27733 -0.05512,0.14469 -0.153306,0.27905 l -0.725193,0.9853 h 0.947401 v 0.33417 h -1.41249 z"
         id="path8634" />
    </g>
    <g
       aria-label="3"
       id="text4691"
       style="font-size:3.52778px;line-height:1.25;font-family:Bahnschrift;-inkscape-font-specification:'Bahnschrift, Normal';fill:#e6e6e6;stroke-width:0.264583">
      <path
         d="m 95.436456,118.91293 q -0.210151,0 -0.370348,-0.0758 -0.160197,-0.0775 -0.258382,-0.22221 -0.09646,-0.14642 -0.122301,-0.3514 v 0 h 0.35829 v 0 q 0.0155,0.1068 0.06718,0.1757 0.05168,0.0689 0.132637,0.10335 0.08268,0.0327 0.192925,0.0327 0.173978,0 0.27044,-0.093 0.09646,-0.093 0.09646,-0.26182 v -0.0758 q 0,-0.18775 -0.0913,-0.28938 -0.0913,-0.10336 -0.258382,-0.10336 h -0.177423 v -0.33417 h 0.177423 q 0.146416,0 0.227376,-0.0879 0.08096,-0.0879 0.08096,-0.24805 v -0.0775 q 0,-0.14814 -0.08613,-0.2291 -0.0844,-0.081 -0.241156,-0.081 -0.08957,0 -0.160197,0.0345 -0.07062,0.0327 -0.120579,0.10335 -0.04823,0.0689 -0.07062,0.17398 v 0 h -0.356568 v 0 q 0.03445,-0.20498 0.129191,-0.3514 0.09646,-0.14642 0.24288,-0.22221 0.146416,-0.0758 0.335897,-0.0758 0.323839,0 0.501261,0.17053 0.177423,0.17053 0.177423,0.48059 v 0.0413 q 0,0.18776 -0.10163,0.32729 -0.101631,0.13952 -0.287666,0.20326 0.204983,0.0448 0.316949,0.20154 0.113688,0.15675 0.113688,0.39963 v 0.0413 q 0,0.21876 -0.08441,0.37379 -0.0844,0.15503 -0.246324,0.23599 -0.160197,0.081 -0.387574,0.081 z"
         id="path8637" />
    </g>
    <g
       aria-label="4"
       id="text4699"
       style="font-size:3.52778px;line-height:1.25;font-family:Bahnschrift;-inkscape-font-specification:'Bahnschrift, Normal';fill:#e6e6e6;stroke-width:0.264583">
      <path
         d="m 107.29704,118.19636 0.84061,-1.81384 h 0.36173 l -0.81993,1.79317 h 1.22818 v 0.32557 h -1.61059 z m 1.08004,-0.78376 h 0.34279 v 1.47451 h -0.34279 z"
         id="path8640" />
    </g>
    <g
       aria-label="Mix"
       id="text4707"
       style="font-size:3.52778px;line-height:1.25;font-family:Bahnschrift;-inkscape-font-specification:'Bahnschrift, Normal';fill:#e6e6e6;stroke-width:0.264583">
      <path
         d="m 120.06632,116.3696 h 0.32901 v 2.50458 h -0.34279 v -1.87585 l 0.0172,0.11024 -0.61668,1.41766 h -0.2446 l -0.61667,-1.38321 0.0172,-0.14469 v 1.87585 h -0.34279 v -2.50458 h 0.32901 l 0.73552,1.65364 z"
         id="path8643" />
      <path
         d="m 120.981,116.3696 h 0.3514 v 0.3514 h -0.3514 z m 0,0.71658 h 0.3514 v 1.788 h -0.3514 z"
         id="path8645" />
      <path
         d="m 122.37971,118.06114 -0.65802,-0.97496 h 0.39102 l 0.51332,0.80098 0.67696,0.98702 h -0.38929 z m -0.0103,-0.17398 0.16881,0.32384 -0.45475,0.66318 h -0.3893 z m 0.12402,-0.16708 0.39102,-0.6339 h 0.39102 l -0.6339,0.96463 z"
         id="path8647" />
    </g>
    <g
       aria-label="1"
       id="text5249"
       style="font-size:3.52778px;line-height:1.25;font-family:Bahnschrift;-inkscape-font-specification:'Bahnschrift, Normal';fill:#1a1a1a;stroke-width:0.264583">
      <path
         d="m 13.902397,117.38997 h -0.3514 v -2.12218 l -0.356568,0.21876 v -0.36346 l 0.356568,-0.23771 h 0.3514 z"
         id="path8800" />
    </g>
    <g
       aria-label="2"
       id="text5253"
       style="font-size:3.52778px;line-height:1.25;font-family:Bahnschrift;-inkscape-font-specification:'Bahnschrift, Normal';fill:#1a1a1a;stroke-width:0.264583">
      <path
         d="m 25.515914,117.098 0.873332,-1.16444 q 0.07579,-0.0999 0.117133,-0.20671 0.04306,-0.10852 0.04306,-0.20154 v -0.003 q 0,-0.14986 -0.08785,-0.23254 -0.08785,-0.0827 -0.24977,-0.0827 -0.153307,0 -0.248047,0.0913 -0.09474,0.0896 -0.11541,0.25494 v 0.002 h -0.363458 v -0.002 q 0.03101,-0.21532 0.125746,-0.36691 0.09646,-0.1533 0.248047,-0.23254 0.151584,-0.081 0.349677,-0.081 0.223932,0 0.382406,0.0775 0.158475,0.0758 0.241157,0.22221 0.08268,0.14642 0.08268,0.35312 v 0.002 q 0,0.13263 -0.05512,0.27733 -0.05512,0.14469 -0.153307,0.27905 l -0.725193,0.9853 h 0.947402 v 0.33417 h -1.41249 z"
         id="path8797" />
    </g>
    <g
       aria-label="3"
       id="text5257"
       style="font-size:3.52778px;line-height:1.25;font-family:Bahnschrift;-inkscape-font-specification:'Bahnschrift, Normal';fill:#1a1a1a;stroke-width:0.264583">
      <path
         d="m 39.802129,117.41581 q -0.210151,0 -0.370348,-0.0758 -0.160197,-0.0775 -0.258382,-0.2222 -0.09646,-0.14642 -0.122301,-0.3514 v 0 h 0.35829 v 0 q 0.0155,0.10679 0.06718,0.1757 0.05168,0.0689 0.132636,0.10335 0.08268,0.0327 0.192925,0.0327 0.173978,0 0.27044,-0.093 0.09646,-0.093 0.09646,-0.26183 v -0.0758 q 0,-0.18776 -0.0913,-0.28939 -0.0913,-0.10335 -0.258382,-0.10335 h -0.177423 v -0.33418 h 0.177423 q 0.146416,0 0.227376,-0.0879 0.08096,-0.0879 0.08096,-0.24804 v -0.0775 q 0,-0.14814 -0.08613,-0.2291 -0.08441,-0.081 -0.241157,-0.081 -0.08957,0 -0.160197,0.0345 -0.07063,0.0327 -0.120579,0.10335 -0.04823,0.0689 -0.07062,0.17398 v 0 h -0.356568 v 0 q 0.03445,-0.20499 0.129191,-0.3514 0.09646,-0.14642 0.24288,-0.22221 0.146416,-0.0758 0.335897,-0.0758 0.323839,0 0.501261,0.17054 0.177423,0.17053 0.177423,0.48059 v 0.0413 q 0,0.18776 -0.10163,0.32728 -0.101631,0.13953 -0.287666,0.20326 0.204983,0.0448 0.316949,0.20154 0.113688,0.15675 0.113688,0.39963 v 0.0414 q 0,0.21876 -0.0844,0.37379 -0.08441,0.15503 -0.246324,0.23599 -0.160197,0.081 -0.387574,0.081 z"
         id="path8794" />
    </g>
    <g
       aria-label="4"
       id="text5261"
       style="font-size:3.52778px;line-height:1.25;font-family:Bahnschrift;-inkscape-font-specification:'Bahnschrift, Normal';fill:#1a1a1a;stroke-width:0.264583">
      <path
         d="m 52.878934,116.69922 0.840604,-1.81385 h 0.361735 l -0.819933,1.79318 h 1.228177 v 0.32556 h -1.610583 z m 1.080038,-0.78376 h 0.342787 v 1.4745 h -0.342787 z"
         id="path8791" />
    </g>
  </g>
  <g
     inkscape:groupmode="layer"
     id="layer2"
     inkscape:label="components"
     style="display:none">
    <circle
       style="fill:#ff0000;stroke:none;stroke-width:1.49763;stroke-linecap:round;stroke-linejoin:round;paint-order:fill markers stroke"
       id="OCT_OSC_1"
       cx="13.774064"
       cy="63.864544"
       r="3.75" />
    <circle
       style="fill:#ff0000;stroke:none;stroke-width:1.49763;stroke-linecap:round;stroke-linejoin:round;paint-order:fill markers stroke"
       id="SEMI_OSC_1"
       cx="26.432302"
       cy="63.864544"
       r="3.75" />
    <circle
       style="fill:#ff0000;stroke:none;stroke-width:1.49763;stroke-linecap:round;stroke-linejoin:round;paint-order:fill markers stroke"
       id="FINE_OSC_1"
       cx="40.011414"
       cy="63.864544"
       r="3.75" />
    <circle
       style="fill:#ff0000;stroke:none;stroke-width:1.49763;stroke-linecap:round;stroke-linejoin:round;paint-order:fill markers stroke"
       id="WAVEFORM_OSC_1"
       cx="53.909882"
       cy="63.864544"
       r="3.75" />
    <circle
       style="fill:#ff0000;stroke:none;stroke-width:1.49763;stroke-linecap:round;stroke-linejoin:round;paint-order:fill markers stroke"
       id="OCT_OSC_2"
       cx="13.774064"
       cy="48.806362"
       r="3.75" />
    <circle
       style="fill:#ff0000;stroke:none;stroke-width:1.49763;stroke-linecap:round;stroke-linejoin:round;paint-order:fill markers stroke"
       id="SEMI_OSC_2"
       cx="26.432302"
       cy="48.806362"
       r="3.75" />
    <circle
       style="fill:#ff0000;stroke:none;stroke-width:1.49763;stroke-linecap:round;stroke-linejoin:round;paint-order:fill markers stroke"
       id="FINE_OSC_2"
       cx="40.011414"
       cy="48.806362"
       r="3.75" />
    <circle
       style="fill:#ff0000;stroke:none;stroke-width:1.49763;stroke-linecap:round;stroke-linejoin:round;paint-order:fill markers stroke"
       id="WAVEFORM_OSC_2"
       cx="53.909882"
       cy="48.806362"
       r="3.75" />
    <circle
       style="fill:#ff0000;stroke:none;stroke-width:1.49763;stroke-linecap:round;stroke-linejoin:round;paint-order:fill markers stroke"
       id="OCT_OSC_3"
       cx="13.774064"
       cy="33.748177"
       r="3.75" />
    <circle
       style="fill:#ff0000;stroke:none;stroke-width:1.49763;stroke-linecap:round;stroke-linejoin:round;paint-order:fill markers stroke"
       id="SEMI_OSC_3"
       cx="26.432302"
       cy="33.748177"
       r="3.75" />
    <circle
       style="fill:#ff0000;stroke:none;stroke-width:1.49763;stroke-linecap:round;stroke-linejoin:round;paint-order:fill markers stroke"
       id="FINE_OSC_3"
       cx="40.011414"
       cy="33.748177"
       r="3.75" />
    <circle
       style="fill:#ff0000;stroke:none;stroke-width:1.49763;stroke-linecap:round;stroke-linejoin:round;paint-order:fill markers stroke"
       id="WAVEFORM_OSC_3"
       cx="53.909882"
       cy="33.748177"
       r="3.75" />
    <circle
       style="fill:#ff0000;stroke:none;stroke-width:1.49763;stroke-linecap:round;stroke-linejoin:round;paint-order:fill markers stroke"
       id="SEMI_OSC_4"
       cx="26.432302"
       cy="18.689987"
       r="3.75" />
    <circle
       style="fill:#ff0000;stroke:none;stroke-width:1.49763;stroke-linecap:round;stroke-linejoin:round;paint-order:fill markers stroke"
       id="FINE_OSC_4"
       cx="40.011414"
       cy="18.689987"
       r="3.75" />
    <circle
       style="fill:#ff0000;stroke:none;stroke-width:1.49763;stroke-linecap:round;stroke-linejoin:round;paint-order:fill markers stroke"
       id="WAVEFORM_OSC_4"
       cx="53.909882"
       cy="18.689987"
       r="3.75" />
    <circle
       style="fill:#ff0000;stroke:none;stroke-width:1.49763;stroke-linecap:round;stroke-linejoin:round;paint-order:fill markers stroke"
       id="FM_1_MOD_1"
       cx="77.62706"
       cy="63.864544"
       r="3.75" />
    <circle
       style="fill:#ff0000;stroke:none;stroke-width:1.49763;stroke-linecap:round;stroke-linejoin:round;paint-order:fill markers stroke"
       id="FM_1_MOD_2"
       cx="90.285301"
       cy="63.864544"
       r="3.75" />
    <circle
       style="fill:#ff0000;stroke:none;stroke-width:1.49763;stroke-linecap:round;stroke-linejoin:round;paint-order:fill markers stroke"
       id="FM_1_MOD_3"
       cx="103.86441"
       cy="63.864544"
       r="3.75" />
    <circle
       style="fill:#ff0000;stroke:none;stroke-width:1.49763;stroke-linecap:round;stroke-linejoin:round;paint-order:fill markers stroke"
       id="FM_1_MOD_4"
       cx="117.76289"
       cy="63.864544"
       r="3.75" />
    <circle
       style="fill:#ff0000;stroke:none;stroke-width:1.49763;stroke-linecap:round;stroke-linejoin:round;paint-order:fill markers stroke"
       id="FM_2_MOD_1"
       cx="77.62706"
       cy="48.806362"
       r="3.75" />
    <circle
       style="fill:#ff0000;stroke:none;stroke-width:1.49763;stroke-linecap:round;stroke-linejoin:round;paint-order:fill markers stroke"
       id="FM_2_MOD_2"
       cx="90.285301"
       cy="48.806362"
       r="3.75" />
    <circle
       style="fill:#ff0000;stroke:none;stroke-width:1.49763;stroke-linecap:round;stroke-linejoin:round;paint-order:fill markers stroke"
       id="FM_2_MOD_3"
       cx="103.86441"
       cy="48.806362"
       r="3.75" />
    <circle
       style="fill:#ff0000;stroke:none;stroke-width:1.49763;stroke-linecap:round;stroke-linejoin:round;paint-order:fill markers stroke"
       id="FM_2_MOD_4"
       cx="117.76289"
       cy="48.806362"
       r="3.75" />
    <circle
       style="fill:#ff0000;stroke:none;stroke-width:1.49763;stroke-linecap:round;stroke-linejoin:round;paint-order:fill markers stroke"
       id="FM_3_MOD_1"
       cx="77.62706"
       cy="33.748177"
       r="3.75" />
    <circle
       style="fill:#ff0000;stroke:none;stroke-width:1.49763;stroke-linecap:round;stroke-linejoin:round;paint-order:fill markers stroke"
       id="FM_3_MOD_2"
       cx="90.285301"
       cy="33.748177"
       r="3.75" />
    <circle
       style="fill:#ff0000;stroke:none;stroke-width:1.49763;stroke-linecap:round;stroke-linejoin:round;paint-order:fill markers stroke"
       id="FM_3_MOD_3"
       cx="103.86441"
       cy="33.748177"
       r="3.75" />
    <circle
       style="fill:#ff0000;stroke:none;stroke-width:1.49763;stroke-linecap:round;stroke-linejoin:round;paint-order:fill markers stroke"
       id="FM_3_MOD_4"
       cx="117.76289"
       cy="33.748177"
       r="3.75" />
    <circle
       style="fill:#ff0000;stroke:none;stroke-width:1.49763;stroke-linecap:round;stroke-linejoin:round;paint-order:fill markers stroke"
       id="FM_4_MOD_1"
       cx="77.62706"
       cy="18.689987"
       r="3.75" />
    <circle
       style="fill:#ff0000;stroke:none;stroke-width:1.49763;stroke-linecap:round;stroke-linejoin:round;paint-order:fill markers stroke"
       id="FM_4_MOD_2"
       cx="90.285301"
       cy="18.689987"
       r="3.75" />
    <circle
       style="fill:#ff0000;stroke:none;stroke-width:1.49763;stroke-linecap:round;stroke-linejoin:round;paint-order:fill markers stroke"
       id="FM_4_MOD_3"
       cx="103.86441"
       cy="18.689987"
       r="3.75" />
    <circle
       style="fill:#ff0000;stroke:none;stroke-width:1.49763;stroke-linecap:round;stroke-linejoin:round;paint-order:fill markers stroke"
       id="FM_4_MOD_4"
       cx="117.76289"
       cy="18.689987"
       r="3.75" />
    <circle
       style="fill:#ff0000;stroke:none;stroke-width:1.49763;stroke-linecap:round;stroke-linejoin:round;paint-order:fill markers stroke"
       id="OCT_OSC_4"
       cx="13.774064"
       cy="18.689987"
       r="3.75" />
    <circle
       style="fill:#ff0000;stroke:none;stroke-width:1.49763;stroke-linecap:round;stroke-linejoin:round;paint-order:fill markers stroke"
       id="MIX_OSC_1"
       cx="70.055557"
       cy="89.072784"
       r="3.75" />
    <circle
       style="fill:#ff0000;stroke:none;stroke-width:1.49763;stroke-linecap:round;stroke-linejoin:round;paint-order:fill markers stroke"
       id="MIX_OSC_2"
       cx="82.737823"
       cy="89.072784"
       r="3.75" />
    <circle
       style="fill:#ff0000;stroke:none;stroke-width:1.49763;stroke-linecap:round;stroke-linejoin:round;paint-order:fill markers stroke"
       id="MIX_OSC_3"
       cx="95.42009"
       cy="89.072784"
       r="3.75" />
    <circle
       style="fill:#ff0000;stroke:none;stroke-width:1.49763;stroke-linecap:round;stroke-linejoin:round;paint-order:fill markers stroke"
       id="MIX_OSC_4"
       cx="108.10236"
       cy="89.072784"
       r="3.75" />
    <circle
       style="fill:#ff0000;stroke:none;stroke-width:1.49763;stroke-linecap:round;stroke-linejoin:round;paint-order:fill markers stroke"
       id="MIX_MASTER"
       cx="120.78463"
       cy="89.072784"
       r="3.75" />
    <circle
       style="fill:#00ff00;stroke:none;stroke-width:0.834679;stroke-linecap:round;stroke-linejoin:round;paint-order:fill markers stroke"
       id="GATE_OSC_1"
       cx="13.774064"
       cy="110.36249"
       r="2.0899999" />
    <circle
       style="fill:#00ff00;stroke:none;stroke-width:0.834679;stroke-linecap:round;stroke-linejoin:round;paint-order:fill markers stroke"
       id="GATE_OSC_2"
       cx="26.432302"
       cy="110.36249"
       r="2.0899999" />
    <circle
       style="fill:#00ff00;stroke:none;stroke-width:0.834679;stroke-linecap:round;stroke-linejoin:round;paint-order:fill markers stroke"
       id="GATE_OSC_3"
       cx="40.011414"
       cy="110.36249"
       r="2.0899999" />
    <circle
       style="fill:#00ff00;stroke:none;stroke-width:0.834679;stroke-linecap:round;stroke-linejoin:round;paint-order:fill markers stroke"
       id="GATE_OSC_4"
       cx="53.909882"
       cy="110.36249"
       r="2.0899999" />
    <circle
       style="fill:#00ff00;stroke:none;stroke-width:0.834679;stroke-linecap:round;stroke-linejoin:round;paint-order:fill markers stroke"
       id="V_OCT_OSC_1"
       cx="13.774064"
       cy="90.676582"
       r="2.0899999" />
    <circle
       style="fill:#00ff00;stroke:none;stroke-width:0.834679;stroke-linecap:round;stroke-linejoin:round;paint-order:fill markers stroke"
       id="V_OCT_OSC_2"
       cx="26.432302"
       cy="90.676582"
       r="2.0899999" />
    <circle
       style="fill:#00ff00;stroke:none;stroke-width:0.834679;stroke-linecap:round;stroke-linejoin:round;paint-order:fill markers stroke"
       id="V_OCT_OSC_3"
       cx="40.011414"
       cy="90.676582"
       r="2.0899999" />
    <circle
       style="fill:#00ff00;stroke:none;stroke-width:0.834679;stroke-linecap:round;stroke-linejoin:round;paint-order:fill markers stroke"
       id="V_OCT_OSC_4"
       cx="53.909882"
       cy="90.676582"
       r="2.0899999" />
    <circle
       style="fill:#0000ff;stroke:none;stroke-width:1.49763;stroke-linecap:round;stroke-linejoin:round;paint-order:fill markers stroke"
       id="OUT_OSC_1"
       cx="70.055557"
       cy="108.50631"
       r="3.75" />
    <circle
       style="fill:#0000ff;stroke:none;stroke-width:1.49763;stroke-linecap:round;stroke-linejoin:round;paint-order:fill markers stroke"
       id="OUT_OSC_2"
       cx="82.737823"
       cy="108.50631"
       r="3.75" />
    <circle
       style="fill:#0000ff;stroke:none;stroke-width:1.49763;stroke-linecap:round;stroke-linejoin:round;paint-order:fill markers stroke"
       id="OUT_OSC_3"
       cx="95.42009"
       cy="108.50631"
       r="3.75" />
    <circle
       style="fill:#0000ff;stroke:none;stroke-width:1.49763;stroke-linecap:round;stroke-linejoin:round;paint-order:fill markers stroke"
       id="OUT_OSC_4"
       cx="108.10236"
       cy="108.50631"
       r="3.75" />
    <circle
       style="fill:#0000ff;stroke:none;stroke-width:1.49763;stroke-linecap:round;stroke-linejoin:round;paint-order:fill markers stroke"
       id="OUT_MIX"
       cx="120.78463"
       cy="108.50631"
       r="3.75" />
  </g>
</svg>
